<svg width="68" height="68" viewBox="0 0 68 68" fill="none" xmlns="http://www.w3.org/2000/svg">
<rect width="68" height="68" rx="34" fill="#D9D9D9" fill-opacity="0.6"/>
<path d="M21 26.2C21 23.7482 21 22.5236 21.7618 21.7618C22.5236 21 23.7482 21 26.2 21C28.6518 21 29.8764 21 30.6382 21.7618C31.4 22.5236 31.4 23.7482 31.4 26.2V41.8C31.4 44.2518 31.4 45.4764 30.6382 46.2382C29.8764 47 28.6518 47 26.2 47C23.7482 47 22.5236 47 21.7618 46.2382C21 45.4764 21 44.2518 21 41.8V26.2ZM36.6 26.2C36.6 23.7482 36.6 22.5236 37.3618 21.7618C38.1236 21 39.3482 21 41.8 21C44.2518 21 45.4764 21 46.2382 21.7618C47 22.5236 47 23.7482 47 26.2V41.8C47 44.2518 47 45.4764 46.2382 46.2382C45.4764 47 44.2518 47 41.8 47C39.3482 47 38.1236 47 37.3618 46.2382C36.6 45.4764 36.6 44.2518 36.6 41.8V26.2Z" fill="white" fill-opacity="0.8"/>
</svg>
