<svg width="68" height="68" viewBox="0 0 68 68" fill="none" xmlns="http://www.w3.org/2000/svg">
<rect width="68" height="68" rx="34" fill="#D9D9D9" fill-opacity="0.6"/>
<path d="M45.9997 33.2222C46.0073 33.7063 45.8862 34.1859 45.645 34.6266C45.3916 35.0929 45.0032 35.4974 44.5134 35.8064L28.2153 46.3539C27.6415 46.7177 26.9573 46.9414 26.2392 47H25.8508C25.2637 47.0002 24.6849 46.8847 24.1619 46.6629C23.5272 46.4038 22.9901 46.0049 22.6089 45.5097C22.2278 45.0144 22.0172 44.4418 22 43.854V24.1914C21.9965 23.611 22.1897 23.0416 22.5574 22.5482C22.9132 22.0549 23.4229 21.6509 24.0324 21.3789C24.642 21.1069 25.3287 20.9771 26.0197 21.0033C26.7155 21.0314 27.3911 21.2112 27.9788 21.523L44.2938 30.5677C44.7904 30.8542 45.2059 31.2278 45.5099 31.6632C45.8308 32.1407 45.9997 32.6758 45.9997 33.2222Z" fill="white" fill-opacity="0.8"/>
</svg>
