<svg width="10" height="11" viewBox="0 0 10 11" fill="none" xmlns="http://www.w3.org/2000/svg">
<path fill-rule="evenodd" clip-rule="evenodd" d="M4.37505 0C4.09891 0 3.87505 0.223858 3.87505 0.5V6.87184C3.87505 7.30432 3.36317 7.53282 3.04121 7.24407L1.32376 5.70375C1.1338 5.53338 0.846037 5.53338 0.656082 5.70375L0.166009 6.14328C-0.0555425 6.34198 -0.0555421 6.68903 0.166009 6.88773L4.41733 10.7006C4.60729 10.871 4.89507 10.8709 5.08502 10.7006L9.33598 6.88773C9.55751 6.68903 9.55751 6.34199 9.33596 6.14329L8.84589 5.70376C8.65593 5.53339 8.36815 5.5334 8.1782 5.70378L6.46117 7.24387C6.13922 7.53264 5.62732 7.30414 5.62732 6.87166V0.5C5.62732 0.223858 5.40346 0 5.12732 0H4.37505Z" fill="#020202"/>
</svg>
