<svg width="254" height="237" viewBox="0 0 254 237" fill="none" xmlns="http://www.w3.org/2000/svg">
<g filter="url(#filter0_d_1575_3205)">
<rect width="214" height="197" transform="translate(20 20)" fill="white"/>
<rect x="100" y="92" width="54" height="54" rx="27" fill="black" fill-opacity="0.3"/>
<path d="M127 131.287C125.46 131.287 124.212 130.039 124.212 128.499V124.787C124.212 123.131 122.869 121.787 121.212 121.787H117.501C115.961 121.787 114.713 120.539 114.713 119C114.713 117.46 115.961 116.212 117.501 116.212H121.212C122.869 116.212 124.212 114.869 124.212 113.212V109.501C124.212 107.961 125.46 106.713 127 106.713C128.539 106.713 129.787 107.961 129.787 109.501V113.212C129.787 114.869 131.131 116.212 132.787 116.212H136.499C138.039 116.212 139.287 117.46 139.287 119C139.287 120.539 138.039 121.787 136.499 121.787H132.787C131.131 121.787 129.787 123.131 129.787 124.787V128.499C129.787 130.039 128.539 131.287 127 131.287Z" fill="white"/>
<path opacity="0.3" d="M60.4148 73.6591V69.608H62.3466V67.6477H62.3011C61.1705 67.6989 60.0455 67.7216 58.9148 67.7216L58.6761 66.233C61.5909 66.2159 64.5227 66.1818 67.4148 65.8125L67.5455 67.1364C66.4659 67.3352 65.3693 67.4545 64.2784 67.5284L64.233 67.5341V70.1648H62.3125V72.1591H70.625V73.6591H60.4148ZM65.8182 69.4205V68.1534H68.4318V60.0625H70.3239V70.5227H68.4318V69.4205H65.8182ZM61.7102 65.233C60.6193 64.9261 59.6761 64.1818 59.6761 62.9773C59.6761 61.7727 60.6193 61.0114 61.7102 60.7045C62.1591 60.5795 62.6307 60.5227 63.0966 60.5227C63.5909 60.5227 64.0909 60.5852 64.5625 60.7273C65.6193 61.0511 66.5057 61.8068 66.5057 62.9773C66.5057 64.142 65.6193 64.8864 64.5625 65.2045C64.0909 65.3466 63.5909 65.4091 63.0966 65.4091C62.6307 65.4091 62.1591 65.358 61.7102 65.233ZM61.4659 62.9773C61.4659 63.858 62.4489 64.0511 63.0966 64.0511C63.75 64.0511 64.7159 63.8523 64.7159 62.9773C64.7159 62.0966 63.7557 61.8807 63.0966 61.8807C62.4432 61.8807 61.4659 62.0909 61.4659 62.9773ZM73.694 67.7557C73.694 65.7727 75.2678 64.4943 77.1769 64.4943C79.086 64.4943 80.6258 65.7841 80.6258 67.7557C80.6258 69.7386 79.1144 71.0568 77.1769 71.0568C75.2394 71.0568 73.694 69.7557 73.694 67.7557ZM82.1258 73.8977V60.0625H84.0235V65.5057H86.0178V67.0568H84.0235V73.8977H82.1258ZM73.1315 63.608V62.1193H76.211V60.3011H78.1088V62.1193H81.1258V63.608H73.1315ZM77.1769 69.517C78.2281 69.517 78.836 68.7614 78.836 67.7557C78.836 66.7557 78.2053 66.0114 77.1769 66.0114C76.1428 66.0114 75.5008 66.7614 75.5008 67.7727C75.5008 68.7841 76.1485 69.517 77.1769 69.517ZM89.1152 73.6307V69.5568H91.0186V72.1193H98.8709V73.6307H89.1152ZM87.6891 68.3636V66.8523H100.183V68.3636H87.6891ZM89.2459 65.3352V60.5739H91.1436V63.8409H98.797V65.3352H89.2459ZM109.083 73.7898V70.0966H116.35V69.1648H109.066V67.7614H118.23V71.4034H110.963V72.375H118.577V73.7898H109.083ZM107.736 67.2614L106.873 65.7898C108.554 65.2955 109.98 64.0966 110.151 62.2443L110.157 62.1875H107.378V60.6875H114.838V62.1875H112.1L112.111 62.2443C112.299 63.9886 113.753 65.0795 115.327 65.517L114.475 66.9545C113.071 66.5795 111.912 65.7614 111.219 64.4659L111.174 64.3807L111.134 64.4659C110.446 65.892 109.242 66.8295 107.736 67.2614ZM116.327 67.108V60.0625H118.219V67.108H116.327ZM122.714 73.6761V69.7273H124.612V72.1818H132.356V73.6761H122.714ZM121.254 68.4375V66.9602H133.743V68.4375H128.629V70.8182H126.726V68.4375H121.254ZM122.805 65.7557V60.6591H132.146V65.7557H122.805ZM124.669 64.2784H130.277V62.1307H124.669V64.2784ZM136.42 68.0057C136.221 67.3352 136.141 66.6364 136.141 65.9432C136.141 65.2102 136.232 64.4716 136.454 63.7727C136.942 62.233 138.067 61.0284 139.749 61.0284C141.431 61.0284 142.556 62.233 143.039 63.7727C143.26 64.4716 143.351 65.2102 143.351 65.9432C143.351 66.6364 143.272 67.3352 143.073 68.0057C142.613 69.5909 141.482 70.8864 139.749 70.8864C138.016 70.8864 136.88 69.5909 136.42 68.0057ZM145.272 73.9261V60.0455H147.175V73.9261H145.272ZM138.863 68.8352C139.113 69.0511 139.414 69.1705 139.749 69.1705C140.084 69.1705 140.385 69.0511 140.635 68.8352C141.391 68.1875 141.533 66.8409 141.533 65.9432C141.533 65.017 141.38 63.5682 140.522 62.9716C140.295 62.8125 140.027 62.733 139.749 62.733C139.471 62.733 139.204 62.8125 138.976 62.9716C138.118 63.5682 137.971 65.0227 137.971 65.9432C137.971 66.8409 138.107 68.1875 138.863 68.8352ZM156.37 73.733V68.2273H158.114V69.5909H159.614V68.2273H161.347V72.4318L161.415 72.3977C162.751 71.7784 163.592 70.6023 163.592 69.1023V68.1136H165.461V69.1023C165.461 70.7273 166.268 71.9261 167.79 72.4716L166.864 73.8693C165.813 73.483 165.018 72.7557 164.546 71.733L164.501 71.6364L164.461 71.7273C163.984 72.7216 163.217 73.4602 162.194 73.8693L161.347 72.5739V73.733H156.37ZM162.165 64.5625L162.16 64.5966C161.751 66.2102 160.222 67.0568 158.631 67.0568C156.717 67.0568 155.023 65.8239 155.023 63.8011C155.023 61.7955 156.734 60.5682 158.631 60.5682C160.211 60.5682 161.739 61.392 162.148 63L162.154 63.0341H164.478V60.0625H166.364V67.3295H164.478V64.5625H162.165ZM158.114 72.3409H159.614V70.9318H158.114V72.3409ZM156.836 63.8011C156.836 64.8807 157.603 65.5057 158.631 65.5057C159.665 65.5057 160.444 64.892 160.444 63.8011C160.444 62.7216 159.648 62.1193 158.631 62.1193C157.62 62.1193 156.836 62.733 156.836 63.8011ZM169.859 70.5795V61.3409H176.251V62.8636H171.751V69.0227H171.797C173.604 68.9886 175.394 68.8807 177.178 68.5795L177.359 70.1364C175.257 70.5114 173.132 70.5795 171.001 70.5795H169.859ZM178.217 73.9318V60.0625H180.109V65.1989H182.132V66.7557H180.109V73.9318H178.217ZM186.252 73.6591V69.2614H188.156V72.1591H195.639V73.6591H186.252ZM184.383 67.8864V61.1761H190.838V62.25H193.44V60.0625H195.332V70.1136H193.44V66.7386H190.838V67.8864H184.383ZM186.252 66.4148H188.991V62.642H186.252V66.4148ZM190.838 65.25H193.44V63.7443H190.838V65.25Z" fill="black"/>
<path opacity="0.3" d="M67.8125 175.568V174.08H77.1705V178.915H75.267V175.568H67.8125ZM66.767 173.136L65.8125 171.665C67.7159 171.034 69.0682 169.483 69.108 167.415V167.364H66.3182V165.892H73.7784V167.364H71.0284V167.415C71.0739 169.415 72.4659 170.824 74.267 171.438L73.3125 172.881C71.9091 172.426 70.8125 171.511 70.142 170.188L70.0966 170.097L70.0568 170.188C69.4091 171.625 68.25 172.642 66.767 173.136ZM75.267 173.364V165.062H77.1705V173.364H75.267ZM82.6258 178.733V173.244H84.4894V174.517H89.8531V173.244H91.7281V178.733H82.6258ZM81.1031 172.841L80.1599 171.347C81.9951 170.71 83.2849 169.227 83.3928 167.239L83.3985 167.188H80.6769V165.688H88.0519V167.188H85.3644V167.239C85.4781 169.114 86.7508 170.494 88.4667 171.085L87.5463 172.562C86.1713 172.102 85.086 171.182 84.461 169.858L84.4156 169.761L84.3758 169.858C83.7281 171.295 82.586 172.324 81.1031 172.841ZM89.8417 172.585V169.699H87.7394V168.176H89.8417V165.062H91.7281V172.585H89.8417ZM84.4894 177.244H89.8531V175.949H84.4894V177.244ZM101.599 178.79V175.097H108.866V174.165H101.582V172.761H110.747V176.403H103.48V177.375H111.093V178.79H101.599ZM100.252 172.261L99.3887 170.79C101.071 170.295 102.497 169.097 102.667 167.244L102.673 167.188H99.8944V165.688H107.355V167.188H104.616L104.627 167.244C104.815 168.989 106.269 170.08 107.843 170.517L106.991 171.955C105.588 171.58 104.429 170.761 103.735 169.466L103.69 169.381L103.65 169.466C102.963 170.892 101.758 171.83 100.252 172.261ZM108.843 172.108V165.062H110.735V172.108H108.843ZM115.23 178.676V174.727H117.128V177.182H124.873V178.676H115.23ZM113.77 173.438V171.96H126.259V173.438H121.145V175.818H119.242V173.438H113.77ZM115.321 170.756V165.659H124.662V170.756H115.321ZM117.185 169.278H122.793V167.131H117.185V169.278ZM128.754 172.756C128.754 170.773 130.328 169.494 132.237 169.494C134.146 169.494 135.686 170.784 135.686 172.756C135.686 174.739 134.174 176.057 132.237 176.057C130.299 176.057 128.754 174.756 128.754 172.756ZM137.186 178.898V165.062H139.084V170.506H141.078V172.057H139.084V178.898H137.186ZM128.191 168.608V167.119H131.271V165.301H133.169V167.119H136.186V168.608H128.191ZM132.237 174.517C133.288 174.517 133.896 173.761 133.896 172.756C133.896 171.756 133.265 171.011 132.237 171.011C131.203 171.011 130.561 171.761 130.561 172.773C130.561 173.784 131.209 174.517 132.237 174.517ZM143.232 175.699V169.898H147.488V167.733H143.204V166.233H149.368V171.364H145.101V174.17H145.147C146.885 174.153 148.613 174.057 150.329 173.784L150.499 175.301C148.454 175.631 146.397 175.699 144.334 175.699H143.232ZM152.38 178.926V171.585H150.204V170.068H152.38V165.045H154.289V178.926H152.38ZM162.79 176.477L161.739 175.028C164.626 173.528 166.631 171.415 167.023 168.057L167.029 168H162.478V166.477H168.938C168.927 171.108 166.921 174.375 162.79 176.477ZM170.734 178.869V165.045H172.631V170.369H174.58V171.92H172.631V178.869H170.734ZM177.371 176.523L176.382 175.034C179.416 173.562 181.416 171.54 181.729 168.04L181.734 167.989H177.104V166.489H183.672C183.666 171.307 181.717 174.409 177.371 176.523ZM185.894 178.881V165.045H187.808V178.881H185.894Z" fill="black"/>
</g>
<defs>
<filter id="filter0_d_1575_3205" x="0" y="0" width="254" height="237" filterUnits="userSpaceOnUse" color-interpolation-filters="sRGB">
<feFlood flood-opacity="0" result="BackgroundImageFix"/>
<feColorMatrix in="SourceAlpha" type="matrix" values="0 0 0 0 0 0 0 0 0 0 0 0 0 0 0 0 0 0 127 0" result="hardAlpha"/>
<feOffset/>
<feGaussianBlur stdDeviation="10"/>
<feComposite in2="hardAlpha" operator="out"/>
<feColorMatrix type="matrix" values="0 0 0 0 0 0 0 0 0 0 0 0 0 0 0 0 0 0 0.1 0"/>
<feBlend mode="normal" in2="BackgroundImageFix" result="effect1_dropShadow_1575_3205"/>
<feBlend mode="normal" in="SourceGraphic" in2="effect1_dropShadow_1575_3205" result="shape"/>
</filter>
</defs>
</svg>
