<svg width="80" height="85" viewBox="0 0 80 85" fill="none" xmlns="http://www.w3.org/2000/svg">
<path d="M20.4412 65.459L39.3466 84.3645C39.6373 84.6547 40.1085 84.655 40.399 84.3645L59.3037 65.4597C59.5942 65.1692 59.594 64.698 59.3037 64.4073L57.8681 62.9717C57.5775 62.6814 57.1063 62.6812 56.8158 62.9717L42.9305 76.857C42.4544 77.3331 41.6408 76.9958 41.6406 76.3225L41.6219 7.65788C41.6216 7.24715 41.2883 6.9149 40.8775 6.91486L38.8674 6.91417C38.4567 6.91423 38.124 7.24717 38.1237 7.65788L38.1044 76.3232C38.104 76.9962 37.2905 77.3333 36.8144 76.8577L22.9285 62.9717C22.6379 62.6814 22.1666 62.6812 21.8761 62.9717L20.4412 64.4066C20.1507 64.6972 20.1509 65.1684 20.4412 65.459Z" fill="#020202" stroke="#020202" stroke-width="0.0117188"/>
<path d="M54.7656 14.3562L26.075 43.0468" stroke="#020202" stroke-width="3.75"/>
<path d="M54.752 43.0383L26.0613 14.3477" stroke="#020202" stroke-width="3.75"/>
<path d="M60.7051 28.7004H20.1304" stroke="#020202" stroke-width="3.75"/>
</svg>
