<svg width="80" height="85" viewBox="0 0 80 85" fill="none" xmlns="http://www.w3.org/2000/svg">
<path d="M22.3845 63.1589L39.3986 80.1729C39.6601 80.4344 40.0844 80.4343 40.346 80.1729L57.3607 63.1582C57.622 62.8966 57.6215 62.4729 57.3601 62.2114L56.0688 60.9201C55.8073 60.6587 55.3836 60.6582 55.122 60.9195L42.6248 73.4167C42.1962 73.845 41.4641 73.5413 41.464 72.9354L41.4467 11.1375C41.4466 10.7677 41.1467 10.4677 40.7769 10.4677H38.9677C38.598 10.4679 38.298 10.7678 38.2979 11.1375L38.2813 72.9361C38.2808 73.5418 37.5482 73.8451 37.1198 73.4167L24.6232 60.9201C24.3618 60.6587 23.9381 60.6582 23.6765 60.9195L22.3845 62.2114C22.1231 62.473 22.123 62.8974 22.3845 63.1589Z" fill="#FF5202" stroke="#FF5202" stroke-width="0.0105469"/>
<path d="M53.2769 17.1655L27.4553 42.9871" stroke="#FF5202" stroke-width="3.375"/>
<path d="M53.2646 42.9795L27.4431 17.1579" stroke="#FF5202" stroke-width="3.375"/>
<path d="M58.6235 30.0752H22.1063" stroke="#FF5202" stroke-width="3.375"/>
</svg>
