<svg width="461" height="336" viewBox="0 0 461 336" fill="none" xmlns="http://www.w3.org/2000/svg">
<g opacity="0.21">
<path d="M266.477 108.688C285.893 113.891 302.451 122.315 313.528 131.707C324.637 141.127 330.093 151.388 327.707 160.294C325.32 169.201 315.464 175.359 301.134 177.962C286.845 180.558 268.294 179.574 248.877 174.371C229.461 169.169 212.903 160.745 201.826 151.353C190.717 141.933 185.261 131.672 187.647 122.765C190.034 113.859 199.89 107.701 214.22 105.098C228.509 102.502 247.06 103.486 266.477 108.688Z" stroke="black"/>
<path d="M286.704 103.245C304.113 113.295 317.926 125.718 326.194 137.657C334.487 149.63 337.101 160.954 332.491 168.94C327.881 176.925 316.767 180.322 302.251 179.128C287.777 177.937 270.113 172.185 252.704 162.134C235.296 152.084 221.482 139.661 213.214 127.722C204.922 115.749 202.307 104.425 206.917 96.4395C211.528 88.4542 222.642 85.0568 237.158 86.2513C251.631 87.4424 269.296 93.194 286.704 103.245Z" stroke="black"/>
<path d="M306.291 100.284C320.504 114.498 330.632 130.072 335.529 143.744C340.439 157.456 340.034 169.071 333.514 175.591C326.994 182.111 315.38 182.516 301.668 177.605C287.996 172.709 272.421 162.581 258.207 148.367C243.994 134.153 233.866 118.579 228.969 104.907C224.059 91.195 224.464 79.5803 230.984 73.0604C237.504 66.5404 249.118 66.1353 262.83 71.0461C276.502 75.9426 292.077 86.0702 306.291 100.284Z" stroke="black"/>
<path d="M325.057 102.781C335.108 120.19 340.859 137.855 342.051 152.328C343.245 166.844 339.848 177.958 331.862 182.568C323.877 187.179 312.553 184.564 300.579 176.271C288.641 168.003 276.218 154.19 266.167 136.781C256.117 119.373 250.365 101.708 249.174 87.2349C247.98 72.719 251.377 61.605 259.362 56.9947C267.348 52.3844 278.671 54.9991 290.645 63.2915C302.584 71.5597 315.007 85.3732 325.057 102.781Z" stroke="black"/>
</g>
<g opacity="0.21">
<path d="M335.94 111.108C341.143 130.524 342.126 149.076 339.531 163.364C336.928 177.695 330.769 187.551 321.863 189.937C312.957 192.324 302.695 186.867 293.276 175.758C283.884 164.682 275.46 148.124 270.257 128.708C265.055 109.291 264.071 90.7396 266.666 76.4511C269.27 62.1207 275.428 52.2646 284.334 49.8781C293.241 47.4917 303.502 52.9481 312.921 64.0571C322.314 75.1335 330.738 91.6915 335.94 111.108Z" stroke="black"/>
<path d="M350.768 125.904C350.768 146.006 346.916 164.18 340.711 177.31C334.488 190.478 325.988 198.404 316.768 198.404C307.547 198.404 299.048 190.478 292.824 177.31C286.619 164.18 282.768 146.006 282.768 125.904C282.768 105.803 286.619 87.6289 292.824 74.499C299.048 61.3306 307.547 53.4043 316.768 53.4043C325.988 53.4043 334.488 61.3306 340.711 74.499C346.916 87.6289 350.768 105.803 350.768 125.904Z" stroke="black"/>
<path d="M363.125 141.385C357.923 160.802 349.499 177.36 340.107 188.436C330.687 199.545 320.426 205.002 311.519 202.615C302.613 200.229 296.455 190.373 293.852 176.042C291.256 161.754 292.24 143.202 297.442 123.786C302.645 104.369 311.069 87.8113 320.461 76.7349C329.88 65.6259 340.142 60.1695 349.048 62.5559C357.955 64.9424 364.113 74.7985 366.716 89.1289C369.311 103.417 368.328 121.969 363.125 141.385Z" stroke="black"/>
<path d="M370.346 158.887C360.296 176.296 347.873 190.109 335.934 198.377C323.961 206.67 312.637 209.284 304.651 204.674C296.666 200.064 293.269 188.95 294.463 174.434C295.654 159.961 301.406 142.296 311.457 124.887C321.507 107.479 333.93 93.6656 345.868 85.3974C357.842 77.1049 369.166 74.4902 377.151 79.1005C385.137 83.7108 388.534 94.8249 387.34 109.341C386.149 123.814 380.397 141.479 370.346 158.887Z" stroke="black"/>
</g>
<g opacity="0.21">
<path d="M348.581 187.515C331.173 197.566 313.508 203.317 299.034 204.508C284.518 205.703 273.404 202.306 268.794 194.32C264.184 186.335 266.799 175.011 275.091 163.037C283.359 151.099 297.173 138.676 314.581 128.625C331.989 118.575 349.654 112.823 364.128 111.632C378.643 110.438 389.757 113.835 394.368 121.82C398.978 129.806 396.363 141.129 388.071 153.103C379.803 165.042 365.989 177.464 348.581 187.515Z" stroke="black"/>
<path d="M338.126 205.668C318.709 210.871 300.158 211.854 285.869 209.259C271.539 206.656 261.683 200.497 259.296 191.591C256.91 182.685 262.366 172.423 273.475 163.004C284.552 153.612 301.109 145.188 320.526 139.985C339.942 134.782 358.494 133.799 372.782 136.394C387.113 138.998 396.969 145.156 399.355 154.062C401.742 162.969 396.285 173.23 385.176 182.649C374.1 192.041 357.542 200.465 338.126 205.668Z" stroke="black"/>
<path d="M326.371 221.611C306.27 221.611 288.096 217.759 274.966 211.554C261.797 205.33 253.871 196.831 253.871 187.611C253.871 178.39 261.797 169.891 274.966 163.667C288.096 157.462 306.27 153.611 326.371 153.611C346.472 153.611 364.646 157.462 377.776 163.667C390.945 169.891 398.871 178.39 398.871 187.611C398.871 196.831 390.945 205.33 377.776 211.554C364.646 217.759 346.472 221.611 326.371 221.611Z" stroke="black"/>
<path d="M311.334 233.115C291.917 227.913 275.359 219.489 264.283 210.097C253.174 200.677 247.717 190.416 250.104 181.509C252.49 172.603 262.346 166.445 276.677 163.842C290.965 161.246 309.517 162.23 328.933 167.432C348.35 172.635 364.908 181.059 375.984 190.451C387.093 199.87 392.55 210.132 390.163 219.038C387.777 227.945 377.921 234.103 363.59 236.706C349.302 239.301 330.75 238.318 311.334 233.115Z" stroke="black"/>
</g>
<g opacity="0.21">
<path d="M200.368 185.362C180.951 190.564 162.4 191.548 148.111 188.952C133.781 186.349 123.925 180.191 121.538 171.285C119.152 162.378 124.608 152.117 135.717 142.697C146.794 133.305 163.352 124.881 182.768 119.679C202.185 114.476 220.736 113.492 235.025 116.088C249.355 118.691 259.211 124.849 261.598 133.756C263.984 142.662 258.528 152.923 247.419 162.343C236.342 171.735 219.784 180.159 200.368 185.362Z" stroke="black"/>
<path d="M185.572 200.19C165.471 200.19 147.297 196.339 134.167 190.134C120.999 183.91 113.072 175.411 113.072 166.19C113.072 156.97 120.999 148.47 134.167 142.247C147.297 136.042 165.471 132.19 185.572 132.19C205.674 132.19 223.848 136.042 236.978 142.247C250.146 148.47 258.072 156.97 258.072 166.19C258.072 175.411 250.146 183.91 236.978 190.134C223.848 196.339 205.674 200.19 185.572 200.19Z" stroke="black"/>
<path d="M170.091 212.547C150.675 207.344 134.117 198.92 123.041 189.528C111.932 180.109 106.475 169.847 108.862 160.941C111.248 152.035 121.104 145.876 135.435 143.273C149.723 140.678 168.275 141.661 187.691 146.864C207.108 152.067 223.666 160.491 234.742 169.883C245.851 179.302 251.307 189.563 248.921 198.47C246.534 207.376 236.678 213.534 222.348 216.138C208.059 218.733 189.508 217.75 170.091 212.547Z" stroke="black"/>
<path d="M152.589 219.768C135.18 209.717 121.367 197.295 113.099 185.356C104.806 173.382 102.192 162.058 106.802 154.073C111.412 146.088 122.526 142.69 137.042 143.885C151.516 145.076 169.18 150.827 186.589 160.878C203.997 170.929 217.81 183.351 226.079 195.29C234.371 207.264 236.986 218.588 232.376 226.573C227.765 234.558 216.651 237.956 202.135 236.761C187.662 235.57 169.997 229.818 152.589 219.768Z" stroke="black"/>
</g>
<g opacity="0.21">
<path d="M139.002 217.998C124.789 203.784 114.661 188.21 109.764 174.538C104.854 160.826 105.259 149.211 111.779 142.691C118.299 136.171 129.913 135.766 143.625 140.677C157.297 145.573 172.872 155.701 187.086 169.915C201.299 184.128 211.427 199.703 216.323 213.375C221.234 227.087 220.829 238.701 214.309 245.221C207.789 251.741 196.175 252.147 182.462 247.236C168.79 242.339 153.216 232.212 139.002 217.998Z" stroke="black"/>
<path d="M118.763 212.598C108.712 195.19 102.961 177.525 101.77 163.051C100.575 148.536 103.973 137.422 111.958 132.811C119.943 128.201 131.267 130.816 143.241 139.108C155.18 147.376 167.602 161.19 177.653 178.598C187.704 196.006 193.455 213.671 194.646 228.145C195.841 242.661 192.443 253.775 184.458 258.385C176.473 262.995 165.149 260.38 153.175 252.088C141.236 243.82 128.814 230.006 118.763 212.598Z" stroke="black"/>
<path d="M100.322 205.369C95.119 185.953 94.1354 167.401 96.7309 153.113C99.334 138.782 105.492 128.926 114.399 126.54C123.305 124.153 133.566 129.61 142.986 140.719C152.378 151.795 160.802 168.353 166.005 187.77C171.207 207.186 172.191 225.738 169.595 240.026C166.992 254.357 160.834 264.213 151.927 266.599C143.021 268.986 132.76 263.529 123.34 252.42C113.948 241.344 105.524 224.786 100.322 205.369Z" stroke="black"/>
<path d="M85.3164 193.823C85.3164 173.721 89.1678 155.547 95.3731 142.417C101.596 129.249 110.096 121.323 119.316 121.323C128.537 121.323 137.036 129.249 143.26 142.417C149.465 155.547 153.316 173.721 153.316 193.823C153.316 213.924 149.465 232.098 143.26 245.228C137.036 258.396 128.537 266.323 119.316 266.323C110.096 266.323 101.596 258.396 95.373 245.228C89.1678 232.098 85.3164 213.924 85.3164 193.823Z" stroke="black"/>
</g>
<g opacity="0.21">
<path d="M89.851 158.148C99.9017 140.739 112.324 126.926 124.263 118.658C136.237 110.365 147.561 107.75 155.546 112.361C163.531 116.971 166.929 128.085 165.734 142.601C164.543 157.074 158.791 174.739 148.741 192.148C138.69 209.556 126.268 223.369 114.329 231.638C102.355 239.93 91.0311 242.545 83.0458 237.934C75.0606 233.324 71.6631 222.21 72.8577 207.694C74.0487 193.221 79.8003 175.556 89.851 158.148Z" stroke="black"/>
<path d="M89.8278 137.2C104.042 122.986 119.616 112.858 133.288 107.962C147 103.051 158.615 103.456 165.135 109.976C171.655 116.496 172.06 128.111 167.149 141.823C162.253 155.495 152.125 171.069 137.911 185.283C123.697 199.497 108.123 209.624 94.4509 214.521C80.7389 219.432 69.1242 219.026 62.6042 212.507C56.0842 205.987 55.6791 194.372 60.5899 180.66C65.4864 166.988 75.614 151.413 89.8278 137.2Z" stroke="black"/>
<path d="M92.0382 117.515C109.447 107.465 127.111 101.713 141.585 100.522C156.101 99.3274 167.215 102.725 171.825 110.71C176.435 118.695 173.821 130.019 165.528 141.993C157.26 153.932 143.447 166.354 126.038 176.405C108.63 186.456 90.965 192.207 76.4916 193.398C61.9758 194.593 50.8617 191.195 46.2514 183.21C41.6411 175.225 44.2558 163.901 52.5483 151.927C60.8165 139.988 74.6299 127.566 92.0382 117.515Z" stroke="black"/>
<path d="M99.308 100.034C118.724 94.831 137.276 93.8474 151.565 96.4429C165.895 99.0461 175.751 105.204 178.137 114.111C180.524 123.017 175.067 133.278 163.959 142.698C152.882 152.09 136.324 160.514 116.908 165.717C97.4913 170.919 78.9397 171.903 64.6512 169.307C50.3208 166.704 40.4647 160.546 38.0782 151.639C35.6918 142.733 41.1482 132.472 52.2572 123.052C63.3336 113.66 79.8916 105.236 99.308 100.034Z" stroke="black"/>
</g>
</svg>
