<svg width="424" height="240" viewBox="0 0 424 240" fill="none" xmlns="http://www.w3.org/2000/svg">
<rect width="271" height="45" transform="translate(77)" fill="white"/>
<path d="M91.7695 12.9629V14.7891H101.223V12.9629H102.898V19.2363H90.0938V12.9629H91.7695ZM91.7695 17.9258H101.223V16.0781H91.7695V17.9258ZM105.176 20.8262V22.2227H97.291V24.0918H102.941V28.3242H91.5977V30.1934H103.521V31.5254H89.9219V27.0781H101.287V25.3809H89.8789V24.0918H95.6152V22.2227H87.7734V20.8262H105.176ZM120.364 13.5859C123.221 13.5645 125.262 15.1328 125.262 17.4746C125.262 19.7949 123.221 21.4062 120.364 21.3848C117.506 21.4062 115.465 19.7949 115.465 17.4746C115.465 15.1328 117.506 13.5645 120.364 13.5859ZM120.364 14.9609C118.451 14.9395 117.098 15.9922 117.119 17.4746C117.098 18.9785 118.451 20.0098 120.364 19.9883C122.297 20.0098 123.651 18.9785 123.651 17.4746C123.651 15.9922 122.297 14.9395 120.364 14.9609ZM129.817 12.6621V31.7617H128.162V12.6621H129.817ZM114.026 23.0176C117.614 23.0176 122.512 22.9531 126.766 22.3301L126.873 23.5977C125.047 23.9307 123.146 24.1348 121.309 24.2422V31.1602H119.633V24.3496C117.689 24.4355 115.852 24.4463 114.262 24.457L114.026 23.0176ZM150.333 12.6406V31.7402H148.701V12.6406H150.333ZM146.488 13.0488V30.7734H144.876V21.4922H142.427C142.244 25.209 140.665 27.5293 138.302 27.5293C135.81 27.5293 134.199 24.9512 134.199 20.8906C134.199 16.8301 135.81 14.252 138.302 14.252C140.622 14.252 142.191 16.4971 142.406 20.0957H144.876V13.0488H146.488ZM138.302 15.8418C136.755 15.8418 135.767 17.7754 135.788 20.8906C135.767 23.9844 136.755 25.9395 138.302 25.918C139.849 25.9395 140.837 23.9844 140.837 20.8906C140.837 17.7754 139.849 15.8418 138.302 15.8418ZM175.039 12.6406V20.418H178.132V21.8359H175.039V31.7402H173.363V12.6406H175.039ZM170.097 14.7031C170.097 20.1172 167.562 25.0371 161.332 28.1094L160.386 26.7773C165.328 24.3174 168.013 20.6436 168.4 16.1211H161.267V14.7031H170.097ZM186.618 16.2715C186.618 18.7637 188.487 20.998 191.301 21.9219L190.507 23.2539C188.304 22.5342 186.639 21.0088 185.823 19.0859C184.996 21.2773 183.234 22.9854 180.946 23.8125L180.087 22.459C182.944 21.4922 184.942 19.0215 184.964 16.2715V15.4551H180.602V14.0586H190.915V15.4551H186.618V16.2715ZM195.083 12.6406V17.5176H197.962V18.9355H195.083V24.1777H193.407V12.6406H195.083ZM188.96 24.6934C192.891 24.6934 195.255 25.9824 195.255 28.1738C195.255 30.4082 192.891 31.6973 188.96 31.6973C185.028 31.6973 182.622 30.4082 182.622 28.1738C182.622 25.9824 185.028 24.6934 188.96 24.6934ZM188.96 26.0469C186.081 26.0469 184.298 26.8418 184.319 28.1738C184.298 29.5488 186.081 30.3438 188.96 30.3438C191.86 30.3438 193.622 29.5488 193.622 28.1738C193.622 26.8418 191.86 26.0469 188.96 26.0469ZM216.114 14.3164V17.9902H220.583V12.6621H222.28V26.6055H220.583V19.3652H216.114V23.168H207.349V14.3164H216.114ZM209.024 15.7129V21.8145H214.46V15.7129H209.024ZM222.817 29.9141V31.332H210.013V25.3164H211.71V29.9141H222.817ZM242.174 12.6406V31.7832H240.477V20.998H236.287V19.6016H240.477V12.6406H242.174ZM232.957 18.3125C232.957 21.4922 235.234 24.9512 238.027 26.2188L237.018 27.5723C234.837 26.5088 233 24.1992 232.141 21.5352C231.26 24.3604 229.38 26.8096 227.199 27.959L226.168 26.6484C228.94 25.2949 231.238 21.707 231.26 18.3125V16.0137H226.899V14.6172H237.34V16.0137H232.957V18.3125ZM261.336 12.877C265.59 12.877 268.082 14.0586 268.082 16.1855C268.082 18.1943 265.902 19.3438 262.131 19.4941V20.9551H270.037V22.3301H252.635V20.9551H260.477V19.4941C256.749 19.333 254.569 18.1836 254.569 16.1855C254.569 14.0586 257.082 12.877 261.336 12.877ZM261.336 14.166C258.157 14.1875 256.309 14.918 256.33 16.1855C256.309 17.4961 258.157 18.2051 261.336 18.2266C264.494 18.2051 266.364 17.4961 266.364 16.1855C266.364 14.918 264.494 14.1875 261.336 14.166ZM267.803 23.9414V28.2168H256.459V30.1934H268.383V31.5254H254.784V26.9707H266.149V25.252H254.741V23.9414H267.803ZM287.31 12.6406V20.2461H290.511V21.6641H287.31V31.7832H285.634V12.6406H287.31ZM281.96 14.4238V21.2559H274.999V25.7246C278.544 25.7246 281.015 25.6064 283.915 25.0586L284.087 26.4551C281.08 27.0137 278.523 27.1426 274.849 27.1641H273.324V19.8594H280.285V15.8203H273.281V14.4238H281.96ZM307.354 12.6406V18.4629H310.233V19.8809H307.354V26.627H305.657V12.6406H307.354ZM302.198 14.123C302.198 19.043 298.674 22.6953 293.174 24.4141L292.444 23.0605C297.02 21.6318 300.006 18.9033 300.372 15.541H293.239V14.123H302.198ZM308.235 29.9141V31.332H295.387V25.209H297.063V29.9141H308.235ZM327.097 12.6406V20.2031H330.299V21.6211H327.097V31.7832H325.422V12.6406H327.097ZM322.07 14.5098V15.9062H314.83V25.5742C318.289 25.5742 320.738 25.4131 323.574 24.8867L323.789 26.3477C320.802 26.8848 318.289 26.9922 314.658 26.9922H313.154V14.5098H322.07ZM334.229 30.1289C333.477 30.1289 332.833 29.5059 332.854 28.7324C332.833 27.9805 333.477 27.3574 334.229 27.3574C334.981 27.3574 335.604 27.9805 335.604 28.7324C335.604 29.5059 334.981 30.1289 334.229 30.1289Z" fill="black" fill-opacity="0.7"/>
<rect width="284" height="45" transform="translate(0 65)" fill="white"/>
<path d="M26.0402 77.6406V85.1602H29.2414V86.6211H26.0402V96.7402H24.3644V77.6406H26.0402ZM13.7297 79.2734V84.3223H19.3156V79.2734H20.9914V92.1641H12.0539V79.2734H13.7297ZM13.7297 90.7461H19.3156V85.6758H13.7297V90.7461ZM48.6409 92.959V94.377H31.1526V92.959H39.0159V89.3496H33.344V83.4629H44.7737V80.4551H33.3011V79.0586H46.428V84.8379H35.0198V87.9531H46.8792V89.3496H40.6702V92.959H48.6409ZM72.3794 77.6406V82.4531H75.2583V83.8926H72.3794V88.877H70.7037V77.6406H72.3794ZM59.9185 78.7793V81.7227H65.483V78.7793H67.1587V87.6523H58.2642V78.7793H59.9185ZM59.9185 86.2773H65.483V83.0547H59.9185V86.2773ZM65.5259 89.8008V96.7402H63.8716V91.1758H59.4458V89.8008H65.5259ZM72.3794 89.8008V96.7402H70.7037V91.1758H66.4498V89.8008H72.3794ZM86.0426 78.8867C90.0387 78.8867 93.0251 80.9707 93.0251 84.1289C93.0251 87.3086 90.0387 89.3926 86.0426 89.3711C82.0465 89.3926 79.0602 87.3086 79.0602 84.1289C79.0602 80.9707 82.0465 78.8867 86.0426 78.8867ZM86.0426 80.2617C82.9704 80.2402 80.6501 81.8516 80.6715 84.1289C80.6501 86.4492 82.9704 87.9961 86.0426 87.9961C89.0934 87.9961 91.3923 86.4492 91.3923 84.1289C91.3923 81.8516 89.0934 80.2402 86.0426 80.2617ZM94.8298 92.7871V94.2051H77.3415V92.7871H94.8298ZM114.723 92.959V94.377H97.2351V92.959H105.098V89.3496H99.4266V83.4629H110.856V80.4551H99.3836V79.0586H112.511V84.8379H101.102V87.9531H112.962V89.3496H106.753V92.959H114.723ZM139.364 77.6406V96.7832H137.689V86.2559H133.649V84.8594H137.689V77.6406H139.364ZM133.327 79.4023V80.7988H126.108V84.7734H132.489V86.1484H126.108V90.7676C129.621 90.7676 131.855 90.6494 134.487 90.1875L134.681 91.584C131.909 92.0352 129.567 92.1641 125.872 92.1641H124.411V79.4023H133.327ZM159.494 87.0293V88.3828H152.533V79.6602H159.279V81.0566H154.231V87.0293H159.494ZM160.891 92.7012V94.1191H143.424V92.7012H160.891ZM151.502 79.6816V81.0781H146.69V87.0293C148.29 86.9971 149.869 86.8682 151.652 86.4922L151.846 87.8672C149.697 88.3398 147.957 88.3828 146.045 88.3828H144.992V79.6816H151.502ZM179.087 77.6406V96.7832H177.411V77.6406H179.087ZM173.286 79.4238V86.2129H166.154V90.7246C169.323 90.7246 172.148 90.585 175.564 90.0371L175.736 91.4551C172.212 92.0137 169.312 92.1426 166.025 92.1426H164.435V84.8379H171.589V80.8203H164.392V79.4238H173.286ZM190.043 83.5059C190.043 86.75 192.407 90.0371 195.221 91.2617L194.276 92.5938C192.041 91.5732 190.108 89.3711 189.227 86.7285C188.325 89.5322 186.402 91.9707 184.221 93.0664L183.211 91.7344C185.94 90.4238 188.325 86.8145 188.346 83.5059V81.0137H183.834V79.6172H194.598V81.0137H190.043V83.5059ZM198.959 77.6406V96.7402H197.262V77.6406H198.959ZM214.835 78.7363C217.692 78.7363 219.797 80.5625 219.797 83.1406C219.797 85.7402 217.692 87.5449 214.835 87.5664C211.977 87.5449 209.85 85.7402 209.872 83.1406C209.85 80.5625 211.977 78.7363 214.835 78.7363ZM214.835 80.1543C212.965 80.1543 211.505 81.4219 211.526 83.1406C211.505 84.9023 212.965 86.1699 214.835 86.1699C216.725 86.1699 218.143 84.9023 218.143 83.1406C218.143 81.4219 216.725 80.1543 214.835 80.1543ZM224.438 77.6406V81.959H227.317V83.3555H224.438V87.2012H222.762V77.6406H224.438ZM213.18 89.2637V94.8281C214.287 94.7959 215.758 94.6348 217.112 94.1836L217.37 95.5371C215.501 96.1602 213.696 96.2246 212.45 96.2246H211.547V89.2637H213.18ZM226.35 89.3496V90.6602H216.704V89.3496H220.721V87.6523H222.376V89.3496H226.35ZM221.516 91.3047C223.6 91.3047 225.083 92.3574 225.104 94.0117C225.083 95.666 223.6 96.6973 221.516 96.6973C219.411 96.6973 217.95 95.666 217.971 94.0117C217.95 92.3574 219.411 91.3047 221.516 91.3047ZM221.516 92.5293C220.335 92.5293 219.475 93.1309 219.475 94.0117C219.475 94.9141 220.335 95.4941 221.516 95.4941C222.719 95.4941 223.557 94.9141 223.557 94.0117C223.557 93.1309 222.719 92.5293 221.516 92.5293ZM244.847 83.4414V84.7949H231.763V78.3496H233.439V83.4414H244.847ZM246.867 87.3945V88.7695H229.379V87.3945H246.867ZM244.955 94.8711V96.2676H231.656V90.7246H233.332V94.8711H244.955ZM264.075 77.6406V85.2031H267.276V86.6211H264.075V96.7832H262.399V77.6406H264.075ZM259.048 79.5098V80.9062H251.807V90.5742C255.266 90.5742 257.716 90.4131 260.552 89.8867L260.766 91.3477C257.78 91.8848 255.266 91.9922 251.636 91.9922H250.132V79.5098H259.048ZM271.207 95.1289C270.455 95.1289 269.811 94.5059 269.832 93.7324C269.811 92.9805 270.455 92.3574 271.207 92.3574C271.959 92.3574 272.582 92.9805 272.582 93.7324C272.582 94.5059 271.959 95.1289 271.207 95.1289Z" fill="black" fill-opacity="0.7"/>
<rect width="244" height="45" transform="translate(57 130)" fill="white"/>
<path d="M85.2402 150.074V151.449H67.7734V150.074H73.2305C73.875 147.689 73.9932 145.96 74.0254 144.789H69.4062V143.414H75.6797V144.08C75.6582 145.122 75.6582 147.271 74.9277 150.074H80.793C81.3408 147.722 81.4375 145.971 81.459 144.789H76.9688V143.414H83.1133V144.102C83.1133 145.251 83.1133 147.249 82.4688 150.074H85.2402ZM75.6367 153.383V157.916H71.168V160.15C73.6064 160.15 74.874 160.107 76.4746 159.828L76.668 161.117C74.8633 161.482 73.4883 161.482 70.6309 161.482H69.5996V156.713H74.0254V154.672H69.5137V153.383H75.6367ZM84.4023 154.35V155.639H76.3027V154.35H79.5039V152.502H81.1367V154.35H84.4023ZM80.3418 156.391C82.2109 156.391 83.5859 157.422 83.5859 159.055C83.5859 160.709 82.2109 161.697 80.3418 161.697C78.4727 161.697 77.0977 160.709 77.0977 159.055C77.0977 157.422 78.4727 156.391 80.3418 156.391ZM80.3418 157.594C79.2676 157.594 78.5371 158.152 78.5371 159.055C78.5371 159.957 79.2676 160.494 80.3418 160.494C81.3945 160.494 82.1035 159.957 82.125 159.055C82.1035 158.152 81.3945 157.594 80.3418 157.594ZM103.114 148.441V149.795H90.0304V143.35H91.7062V148.441H103.114ZM105.134 152.395V153.77H87.6456V152.395H105.134ZM103.222 159.871V161.268H89.923V155.725H91.5987V159.871H103.222ZM123.544 144.102C123.544 146.594 127.025 148.871 130.333 149.387L129.667 150.719C126.767 150.225 123.899 148.613 122.685 146.379C121.482 148.656 118.581 150.246 115.681 150.74L115.015 149.408C118.345 148.893 121.804 146.68 121.804 144.102V143.135H123.544V144.102ZM131.429 152.373V153.77H123.652V157.68H121.976V153.77H113.941V152.373H131.429ZM129.474 159.914V161.332H116.175V155.811H117.872V159.914H129.474ZM148.788 142.641V148.463H151.666V149.881H148.788V156.627H147.09V142.641H148.788ZM143.631 144.123C143.631 149.043 140.108 152.695 134.608 154.414L133.877 153.061C138.454 151.632 141.44 148.903 141.805 145.541H134.672V144.123H143.631ZM149.668 159.914V161.332H136.821V155.209H138.497V159.914H149.668ZM171.152 152.717V154.092H153.75V152.717H171.152ZM169.218 159.914V161.332H156.005V155.768H157.703V159.914H169.218ZM162.451 143.328C166.554 143.307 169.197 144.725 169.197 147.109C169.197 149.494 166.554 150.912 162.451 150.912C158.304 150.912 155.683 149.494 155.683 147.109C155.683 144.725 158.304 143.307 162.451 143.328ZM162.451 144.682C159.379 144.682 157.402 145.605 157.423 147.109C157.402 148.613 159.379 149.537 162.451 149.537C165.502 149.537 167.478 148.613 167.478 147.109C167.478 145.605 165.502 144.682 162.451 144.682ZM197.533 157.852V159.248H180.045V157.852H187.865V153.168H189.519V157.852H197.533ZM189.562 145.412C189.562 148.613 193.344 151.406 196.674 151.986L195.922 153.383C193.011 152.792 189.938 150.815 188.703 148.055C187.446 150.805 184.395 152.792 181.484 153.383L180.732 151.986C184.062 151.406 187.801 148.613 187.801 145.412V143.951H189.562V145.412ZM215.708 142.641V161.783H214.032V142.641H215.708ZM209.907 144.424V151.213H202.774V155.725C205.943 155.725 208.769 155.585 212.185 155.037L212.356 156.455C208.833 157.014 205.933 157.143 202.645 157.143H201.056V149.838H208.21V145.82H201.013V144.424H209.907ZM234.613 142.641V150.418H237.707V151.836H234.613V161.74H232.938V142.641H234.613ZM229.672 144.703C229.672 150.117 227.137 155.037 220.906 158.109L219.961 156.777C224.902 154.317 227.588 150.644 227.975 146.121H220.842V144.703H229.672ZM248.748 144.037V151.557C251.466 151.567 254.291 151.396 257.407 150.74L257.6 152.137C254.356 152.824 251.455 152.996 248.576 152.996H247.051V144.037H248.748ZM261.059 142.662V148.334H263.938V149.795H261.059V156.455H259.383V142.662H261.059ZM261.746 159.914V161.332H249.178V155.102H250.854V159.914H261.746ZM280.802 142.641V150.203H284.003V151.621H280.802V161.783H279.126V142.641H280.802ZM275.775 144.51V145.906H268.535V155.574C271.994 155.574 274.443 155.413 277.279 154.887L277.494 156.348C274.507 156.885 271.994 156.992 268.363 156.992H266.859V144.51H275.775ZM287.934 160.129C287.182 160.129 286.538 159.506 286.559 158.732C286.538 157.98 287.182 157.357 287.934 157.357C288.686 157.357 289.309 157.98 289.309 158.732C289.309 159.506 288.686 160.129 287.934 160.129Z" fill="black" fill-opacity="0.7"/>
<rect width="284" height="45" transform="translate(37 195)" fill="white"/>
<path d="M65.6613 215.719V217.094H57.7766V218.984H63.4269V223.26H52.0832V225.193H64.007V226.525H50.4074V221.992H61.7726V220.295H50.3644V218.984H56.1008V217.094H48.259V215.719H65.6613ZM63.4055 208.285V214.107H50.5148V208.285H63.4055ZM52.1906 209.639V212.754H61.7297V209.639H52.1906ZM83.9007 207.641V226.783H82.2034V207.641H83.9007ZM73.7386 209.123C76.5745 209.145 78.6155 211.723 78.6155 215.783C78.6155 219.844 76.5745 222.422 73.7386 222.422C70.8812 222.422 68.8616 219.844 68.8616 215.783C68.8616 211.723 70.8812 209.145 73.7386 209.123ZM73.7386 210.627C71.8265 210.648 70.4944 212.668 70.4944 215.783C70.4944 218.898 71.8265 220.918 73.7386 220.918C75.6507 220.918 76.9827 218.898 76.9827 215.783C76.9827 212.668 75.6507 210.648 73.7386 210.627ZM110.948 210.605V212.002H95.3072V210.605H102.311V208.006H103.965V210.605H110.948ZM111.936 223.002V224.398H94.4478V223.002H111.936ZM103.149 213.27C106.995 213.248 109.422 214.666 109.422 217.029C109.422 219.371 106.995 220.789 103.149 220.789C99.2603 220.789 96.854 219.371 96.8755 217.029C96.854 214.666 99.2603 213.248 103.149 213.27ZM103.149 214.645C100.313 214.623 98.5298 215.547 98.5513 217.029C98.5298 218.512 100.313 219.414 103.149 219.414C105.942 219.414 107.704 218.512 107.704 217.029C107.704 215.547 105.942 214.623 103.149 214.645ZM131.83 222.916V224.334H114.341V222.916H131.83ZM129.617 209.102V214.881H118.209V218.018H130.068V219.371H116.533V213.506H127.963V210.498H116.49V209.102H129.617ZM149.682 213.441V214.795H136.598V208.35H138.274V213.441H149.682ZM151.702 217.395V218.77H134.214V217.395H151.702ZM149.79 224.871V226.268H136.491V220.725H138.167V224.871H149.79ZM169.339 219.65C173.271 219.65 175.634 220.939 175.634 223.174C175.634 225.43 173.271 226.719 169.339 226.74C165.407 226.719 163.001 225.43 163.001 223.174C163.001 220.939 165.407 219.65 169.339 219.65ZM169.339 220.982C166.46 221.004 164.677 221.799 164.698 223.174C164.677 224.549 166.46 225.365 169.339 225.365C172.239 225.365 174.001 224.549 174.001 223.174C174.001 221.799 172.239 221.004 169.339 220.982ZM175.462 207.641V212.453H178.341V213.893H175.462V219.135H173.786V207.641H175.462ZM163.001 208.844V211.766H168.565V208.844H170.241V217.652H161.347V208.844H163.001ZM163.001 216.277H168.565V213.098H163.001V216.277ZM198.192 210.992V212.389H195.356V215.031H198.192V216.449H195.356V219.973H193.68V207.641H195.356V210.992H198.192ZM189.318 220.102C193.207 220.102 195.57 221.326 195.57 223.41C195.57 225.494 193.207 226.697 189.318 226.697C185.43 226.697 183.045 225.494 183.067 223.41C183.045 221.326 185.43 220.102 189.318 220.102ZM189.318 221.434C186.461 221.434 184.721 222.143 184.742 223.41C184.721 224.656 186.461 225.387 189.318 225.387C192.176 225.387 193.895 224.656 193.895 223.41C193.895 222.143 192.176 221.434 189.318 221.434ZM191.854 209.832V211.164H180.467V209.832H185.322V207.49H186.998V209.832H191.854ZM186.16 212.152C188.91 212.152 190.736 213.484 190.758 215.525C190.736 217.588 188.91 218.898 186.16 218.898C183.389 218.898 181.541 217.588 181.563 215.525C181.541 213.484 183.389 212.152 186.16 212.152ZM186.16 213.42C184.356 213.441 183.152 214.279 183.174 215.525C183.152 216.771 184.356 217.588 186.16 217.588C187.943 217.588 189.147 216.771 189.168 215.525C189.147 214.279 187.943 213.441 186.16 213.42ZM209.019 207.984C213.273 207.984 215.765 209.145 215.765 211.271C215.765 213.441 213.273 214.602 209.019 214.623C204.765 214.602 202.251 213.441 202.251 211.271C202.251 209.145 204.765 207.984 209.019 207.984ZM209.019 209.252C205.839 209.252 203.991 210.025 204.013 211.271C203.991 212.604 205.839 213.334 209.019 213.334C212.177 213.334 214.046 212.604 214.046 211.271C214.046 210.025 212.177 209.252 209.019 209.252ZM217.72 215.912V217.287H200.318V215.912H217.72ZM215.486 218.941V223.217H204.142V225.193H216.066V226.525H202.466V221.971H213.831V220.23H202.423V218.941H215.486ZM241.544 207.641V213.463H244.423V214.881H241.544V221.734H239.869V207.641H241.544ZM242.425 224.914V226.332H229.599V220.273H231.253V224.914H242.425ZM231.984 208.994C234.841 208.994 236.99 210.928 237.011 213.699C236.99 216.471 234.841 218.404 231.984 218.404C229.126 218.404 226.957 216.471 226.978 213.699C226.957 210.928 229.126 208.994 231.984 208.994ZM231.984 210.477C230.093 210.477 228.611 211.809 228.632 213.699C228.611 215.59 230.093 216.922 231.984 216.922C233.917 216.922 235.357 215.59 235.357 213.699C235.357 211.809 233.917 210.477 231.984 210.477ZM262.813 207.641V226.74H261.159V216.857H258.409V225.752H256.819V208.07H258.409V215.418H261.159V207.641H262.813ZM249.149 209.982V220.295C251.05 220.273 253.07 220.145 255.401 219.672L255.616 221.176C252.952 221.648 250.76 221.799 248.655 221.799H247.473V209.982H249.149ZM281.332 207.662V213.957H284.211V215.375H281.332V221.971H279.656V207.662H281.332ZM277.83 210.004V211.379H266.443V210.004H271.299V207.662H272.974V210.004H277.83ZM272.136 212.432C274.865 212.432 276.713 213.828 276.734 215.998C276.713 218.146 274.865 219.521 272.136 219.521C269.386 219.521 267.517 218.146 267.539 215.998C267.517 213.828 269.386 212.432 272.136 212.432ZM272.136 213.764C270.332 213.764 269.129 214.645 269.15 215.998C269.129 217.352 270.332 218.211 272.136 218.189C273.92 218.211 275.123 217.352 275.144 215.998C275.123 214.645 273.92 213.764 272.136 213.764ZM282.213 224.914V226.332H269.386V220.832H271.041V224.914H282.213ZM301.075 207.641V215.203H304.276V216.621H301.075V226.783H299.399V207.641H301.075ZM296.048 209.51V210.906H288.807V220.574C292.266 220.574 294.716 220.413 297.552 219.887L297.766 221.348C294.78 221.885 292.266 221.992 288.636 221.992H287.132V209.51H296.048ZM308.207 225.129C307.455 225.129 306.811 224.506 306.832 223.732C306.811 222.98 307.455 222.357 308.207 222.357C308.959 222.357 309.582 222.98 309.582 223.732C309.582 224.506 308.959 225.129 308.207 225.129Z" fill="black" fill-opacity="0.7"/>
</svg>
