<svg width="330" height="240" viewBox="0 0 330 240" fill="none" xmlns="http://www.w3.org/2000/svg">
<rect width="224" height="45" transform="translate(24)" fill="white"/>
<path d="M40.1875 13.3496C43.0449 13.3711 45.1289 15.0898 45.1289 17.582C45.1289 20.0742 43.0449 21.793 40.1875 21.793C37.2871 21.793 35.2246 20.0742 35.2246 17.582C35.2246 15.0898 37.2871 13.3711 40.1875 13.3496ZM40.1875 14.7676C38.2754 14.7676 36.8574 15.9277 36.8789 17.582C36.8574 19.2578 38.2754 20.418 40.1875 20.418C42.0781 20.418 43.4961 19.2578 43.4961 17.582C43.4961 15.9277 42.0781 14.7676 40.1875 14.7676ZM50.543 12.6406V22.459H48.8672V12.6406H50.543ZM50.543 23.3828V27.9805H39.8223V30.1289H51.2305V31.4824H38.168V26.7129H48.8672V24.7363H38.125V23.3828H50.543ZM72.1339 23.9844V25.3594H64.1632V31.7402H62.5089V25.3594H54.6456V23.9844H72.1339ZM58.5558 13.4355V16.0781H68.1808V13.4355H69.878V21.6641H56.88V13.4355H58.5558ZM58.5558 20.2891H68.1808V17.4531H58.5558V20.2891ZM84.2073 14.3809V23.168H75.3772V14.3809H84.2073ZM77.0315 15.7559V21.8145H82.5745V15.7559H77.0315ZM89.4924 12.6406V18.4629H92.3713V19.8809H89.4924V26.6484H87.8166V12.6406H89.4924ZM90.3733 29.9141V31.332H77.5471V25.3164H79.2014V29.9141H90.3733ZM118.344 27.8945V29.291H100.856V27.8945H108.719V23.7695H102.918V13.9941H104.616V17.4531H114.541V13.9941H116.196V23.7695H110.374V27.8945H118.344ZM104.616 22.3945H114.541V18.8281H104.616V22.3945ZM125.884 14.123C127.635 14.1338 129.053 15.1543 129.88 16.916H134.908V12.6406H136.584V31.7832H134.908V24.3711H130.009C129.204 26.3047 127.732 27.4219 125.884 27.4219C123.07 27.4219 121.093 24.8438 121.093 20.7832C121.093 16.7227 123.07 14.1445 125.884 14.123ZM125.884 15.627C123.994 15.6484 122.705 17.668 122.705 20.7832C122.705 23.8984 123.994 25.918 125.884 25.918C127.754 25.918 129.064 23.8984 129.064 20.7832C129.064 17.668 127.754 15.6484 125.884 15.627ZM130.375 18.334C130.546 19.0752 130.654 19.8916 130.654 20.7832C130.654 21.5674 130.568 22.3086 130.439 22.9746H134.908V18.334H130.375ZM158.046 20.6328V22.0078H150.161V23.9414H155.811V28.2812H144.467V30.1934H156.391V31.5254H142.792V27.0352H154.157V25.2305H142.749V23.9414H148.507V22.0078H140.643V20.6328H158.046ZM156.499 13.3281V14.6602H150.333C150.569 16.6367 153.759 18.1084 157.122 18.3984L156.563 19.6875C153.437 19.3652 150.494 18.1514 149.366 16.2285C148.206 18.1514 145.273 19.3652 142.147 19.6875L141.589 18.3984C144.929 18.1084 148.109 16.6582 148.378 14.6602H142.233V13.3281H156.499ZM176.52 14.4238C176.52 17.1094 180.044 19.4512 183.481 19.9238L182.794 21.2988C179.829 20.8047 176.896 19.1611 175.661 16.8086C174.436 19.1719 171.493 20.8047 168.528 21.2988L167.841 19.9238C171.278 19.4512 174.78 17.1523 174.78 14.4238V13.3281H176.52V14.4238ZM184.341 23.4043V24.8223H176.435V31.7402H174.78V24.8223H166.938V23.4043H184.341ZM197.036 23.8555V26.2402H200.517V23.8555H202.085V31.4824H195.446V23.8555H197.036ZM197.036 30.1504H200.517V27.5293H197.036V30.1504ZM207.542 25.3594C207.521 27.3789 208.724 29.4844 211.066 30.3438L210.185 31.6328C208.423 30.9238 207.263 29.5811 206.683 27.9805C206.071 29.5488 204.91 30.9023 203.224 31.6328L202.343 30.3438C204.642 29.3984 205.866 27.293 205.866 25.3594V23.7266H207.542V25.3594ZM198.497 13.5C201.054 13.5 203.009 14.9502 203.374 17.1523H207.37V12.6406H209.068V22.7598H207.37V18.5488H203.396C203.052 20.8047 201.086 22.2871 198.497 22.2871C195.597 22.2871 193.534 20.5039 193.534 17.8828C193.534 15.2832 195.597 13.5 198.497 13.5ZM198.497 14.918C196.542 14.918 195.146 16.1426 195.146 17.8828C195.146 19.6445 196.542 20.8906 198.497 20.8906C200.431 20.8906 201.806 19.6445 201.806 17.8828C201.806 16.1426 200.431 14.918 198.497 14.918ZM227.909 12.6406V20.2031H231.11V21.6211H227.909V31.7832H226.233V12.6406H227.909ZM222.881 14.5098V15.9062H215.641V25.5742C219.1 25.5742 221.549 25.4131 224.385 24.8867L224.6 26.3477C221.614 26.8848 219.1 26.9922 215.469 26.9922H213.965V14.5098H222.881ZM235.04 30.1289C234.289 30.1289 233.644 29.5059 233.665 28.7324C233.644 27.9805 234.289 27.3574 235.04 27.3574C235.792 27.3574 236.415 27.9805 236.415 28.7324C236.415 29.5059 235.792 30.1289 235.04 30.1289Z" fill="black" fill-opacity="0.7"/>
<rect width="224" height="45" transform="translate(64 65)" fill="white"/>
<path d="M78.7427 88.8555V91.2402H82.2232V88.8555H83.7916V96.4824H77.1529V88.8555H78.7427ZM78.7427 95.1504H82.2232V92.5293H78.7427V95.1504ZM89.2486 90.3594C89.2271 92.3789 90.4302 94.4844 92.772 95.3438L91.8912 96.6328C90.1295 95.9238 88.9693 94.5811 88.3892 92.9805C87.7769 94.5488 86.6168 95.9023 84.9302 96.6328L84.0494 95.3438C86.3482 94.3984 87.5728 92.293 87.5728 90.3594V88.7266H89.2486V90.3594ZM80.2037 78.5C82.7603 78.5 84.7154 79.9502 85.0806 82.1523H89.0767V77.6406H90.774V87.7598H89.0767V83.5488H85.1021C84.7584 85.8047 82.7925 87.2871 80.2037 87.2871C77.3033 87.2871 75.2408 85.5039 75.2408 82.8828C75.2408 80.2832 77.3033 78.5 80.2037 78.5ZM80.2037 79.918C78.2486 79.918 76.8521 81.1426 76.8521 82.8828C76.8521 84.6445 78.2486 85.8906 80.2037 85.8906C82.1373 85.8906 83.5123 84.6445 83.5123 82.8828C83.5123 81.1426 82.1373 79.918 80.2037 79.918ZM110.281 83.4414V84.7949H97.197V78.3496H98.8727V83.4414H110.281ZM112.3 87.3945V88.7695H94.8122V87.3945H112.3ZM110.388 94.8711V96.2676H97.0895V90.7246H98.7653V94.8711H110.388ZM136.963 77.6406V87.459H135.266V83.6562H131.033V82.2598H135.266V77.6406H136.963ZM130.883 78.5859C130.883 83.334 127.531 86.4707 122.031 87.8672L121.43 86.4707C126.006 85.3643 128.745 83.0439 129.1 79.9824H122.418V78.5859H130.883ZM136.963 88.2754V92.9375H126.307V95.1719H137.607V96.5684H124.631V91.6484H135.266V89.6504H124.588V88.2754H136.963ZM157.07 79.3809V88.168H148.24V79.3809H157.07ZM149.895 80.7559V86.8145H155.438V80.7559H149.895ZM162.356 77.6406V83.4629H165.235V84.8809H162.356V91.6484H160.68V77.6406H162.356ZM163.236 94.9141V96.332H150.41V90.3164H152.065V94.9141H163.236ZM184.741 85.6758V87.0293H167.318V85.6758H184.741ZM182.658 82.7324V84.1074H169.638V78.3066H182.464V79.6602H171.335V82.7324H182.658ZM182.486 88.748V93.1738H171.142V95.1504H183.066V96.5254H169.466V91.9062H180.831V90.0586H169.423V88.748H182.486ZM194.086 81.7441C194.086 84.3223 196.127 86.6426 198.985 87.5449L198.125 88.8984C195.902 88.1465 194.129 86.5781 193.27 84.5586C192.432 86.7393 190.638 88.458 188.371 89.2852L187.491 87.9316C190.348 86.9219 192.389 84.4512 192.389 81.7441V80.627H187.92V79.252H198.491V80.627H194.086V81.7441ZM202.981 77.6621V91.6699H201.305V77.6621H202.981ZM203.582 94.9141V96.332H190.649V90.3379H192.325V94.9141H203.582ZM218.835 78.7363C221.692 78.7363 223.798 80.5625 223.798 83.1406C223.798 85.7402 221.692 87.5449 218.835 87.5664C215.977 87.5449 213.85 85.7402 213.872 83.1406C213.85 80.5625 215.977 78.7363 218.835 78.7363ZM218.835 80.1543C216.965 80.1543 215.505 81.4219 215.526 83.1406C215.505 84.9023 216.965 86.1699 218.835 86.1699C220.725 86.1699 222.143 84.9023 222.143 83.1406C222.143 81.4219 220.725 80.1543 218.835 80.1543ZM228.438 77.6406V81.959H231.317V83.3555H228.438V87.2012H226.762V77.6406H228.438ZM217.18 89.2637V94.8281C218.287 94.7959 219.758 94.6348 221.112 94.1836L221.37 95.5371C219.501 96.1602 217.696 96.2246 216.45 96.2246H215.548V89.2637H217.18ZM230.35 89.3496V90.6602H220.704V89.3496H224.721V87.6523H226.376V89.3496H230.35ZM225.516 91.3047C227.6 91.3047 229.083 92.3574 229.104 94.0117C229.083 95.666 227.6 96.6973 225.516 96.6973C223.411 96.6973 221.95 95.666 221.971 94.0117C221.95 92.3574 223.411 91.3047 225.516 91.3047ZM225.516 92.5293C224.335 92.5293 223.475 93.1309 223.475 94.0117C223.475 94.9141 224.335 95.4941 225.516 95.4941C226.719 95.4941 227.557 94.9141 227.557 94.0117C227.557 93.1309 226.719 92.5293 225.516 92.5293ZM248.847 83.4414V84.7949H235.763V78.3496H237.439V83.4414H248.847ZM250.867 87.3945V88.7695H233.379V87.3945H250.867ZM248.955 94.8711V96.2676H235.656V90.7246H237.332V94.8711H248.955ZM268.075 77.6406V85.2031H271.276V86.6211H268.075V96.7832H266.399V77.6406H268.075ZM263.048 79.5098V80.9062H255.807V90.5742C259.266 90.5742 261.716 90.4131 264.552 89.8867L264.766 91.3477C261.78 91.8848 259.266 91.9922 255.636 91.9922H254.132V79.5098H263.048ZM275.207 95.1289C274.455 95.1289 273.811 94.5059 273.832 93.7324C273.811 92.9805 274.455 92.3574 275.207 92.3574C275.959 92.3574 276.582 92.9805 276.582 93.7324C276.582 94.5059 275.959 95.1289 275.207 95.1289Z" fill="black" fill-opacity="0.7"/>
<rect width="237" height="45" transform="translate(0 130)" fill="white"/>
<path d="M26.8652 151.514V152.889H19.9473V144.467H26.6289V145.842H21.6445V151.514H26.8652ZM28.2617 157.895V159.291H10.7734V157.895H18.6152V153.855H20.2695V157.895H28.2617ZM18.7871 144.467V145.863H13.9746V151.492C15.5859 151.481 17.1865 151.353 18.959 150.955L19.1094 152.373C17.0254 152.846 15.2637 152.91 13.3516 152.889H12.2988V144.467H18.7871ZM45.5987 142.662V148.957H48.4777V150.375H45.5987V156.971H43.923V142.662H45.5987ZM42.0968 145.004V146.379H30.7101V145.004H35.5655V142.662H37.2413V145.004H42.0968ZM36.4034 147.432C39.132 147.432 40.9796 148.828 41.0011 150.998C40.9796 153.146 39.132 154.521 36.4034 154.521C33.6534 154.521 31.7843 153.146 31.8058 150.998C31.7843 148.828 33.6534 147.432 36.4034 147.432ZM36.4034 148.764C34.5987 148.764 33.3956 149.645 33.4171 150.998C33.3956 152.352 34.5987 153.211 36.4034 153.189C38.1866 153.211 39.3898 152.352 39.4112 150.998C39.3898 149.645 38.1866 148.764 36.4034 148.764ZM46.4796 159.914V161.332H33.6534V155.832H35.3077V159.914H46.4796ZM52.5803 160.129C51.8284 160.129 51.1838 159.506 51.2053 158.732C51.1838 157.98 51.8284 157.357 52.5803 157.357C53.3323 157.357 53.9553 157.98 53.9553 158.732C53.9553 159.506 53.3323 160.129 52.5803 160.129ZM59.0462 160.129C58.2943 160.129 57.6498 159.506 57.6712 158.732C57.6498 157.98 58.2943 157.357 59.0462 157.357C59.7982 157.357 60.4212 157.98 60.4212 158.732C60.4212 159.506 59.7982 160.129 59.0462 160.129ZM76.318 148.506C76.2965 151.578 78.5094 154.951 81.2809 156.262L80.3141 157.594C78.1656 156.552 76.3502 154.274 75.5016 151.686C74.6207 154.5 72.6979 156.971 70.5602 158.066L69.5289 156.734C72.2789 155.402 74.6422 151.771 74.6637 148.506V146.014H70.2164V144.617H80.6148V146.014H76.318V148.506ZM84.6324 142.641V150.375H87.8336V151.814H84.6324V161.74H82.9566V142.641H84.6324ZM99.3913 145.348C99.3698 147.904 102.786 150.074 106.116 150.568L105.493 151.9C102.507 151.396 99.6062 149.806 98.446 147.496C97.2859 149.806 94.3747 151.396 91.4421 151.9L90.7761 150.568C94.0847 150.074 97.5007 147.904 97.5007 145.348V145.219H91.3777V143.844H105.493V145.219H99.3913V145.348ZM107.147 153.533V154.93H99.2409V161.74H97.5866V154.93H89.7448V153.533H107.147ZM130.972 142.641V147.518H133.851V148.914H130.972V153.619H129.296V142.641H130.972ZM125.407 143.973V145.348H118.618V150.934C122.453 150.934 124.634 150.815 127.19 150.268L127.405 151.664C124.72 152.223 122.442 152.352 118.425 152.352H116.942V143.973H125.407ZM124.118 154.521V161.74H122.464V155.896H118.038V154.521H124.118ZM130.972 154.521V161.74H129.296V155.896H125.042V154.521H130.972ZM141.047 144.123C143.861 144.145 145.859 146.723 145.881 150.783C145.859 154.844 143.861 157.422 141.047 157.422C138.211 157.422 136.234 154.844 136.234 150.783C136.234 146.723 138.211 144.145 141.047 144.123ZM141.047 145.627C139.156 145.648 137.824 147.668 137.824 150.783C137.824 153.898 139.156 155.918 141.047 155.918C142.959 155.918 144.248 153.898 144.248 150.783C144.248 147.668 142.959 145.648 141.047 145.627ZM150.715 142.641V150.268H153.916V151.729H150.715V161.74H149.039V142.641H150.715ZM160.941 144.123C163.755 144.145 165.753 146.723 165.775 150.783C165.753 154.844 163.755 157.422 160.941 157.422C158.105 157.422 156.128 154.844 156.128 150.783C156.128 146.723 158.105 144.145 160.941 144.123ZM160.941 145.627C159.05 145.648 157.718 147.668 157.718 150.783C157.718 153.898 159.05 155.918 160.941 155.918C162.853 155.918 164.142 153.898 164.142 150.783C164.142 147.668 162.853 145.648 160.941 145.627ZM173.702 147.453V148.893H170.609V153.146H173.702V154.564H170.609V161.74H168.933V142.641H170.609V147.453H173.702ZM197.054 142.662V148.957H199.933V150.375H197.054V156.971H195.378V142.662H197.054ZM193.552 145.004V146.379H182.165V145.004H187.021V142.662H188.697V145.004H193.552ZM187.859 147.432C190.587 147.432 192.435 148.828 192.456 150.998C192.435 153.146 190.587 154.521 187.859 154.521C185.109 154.521 183.24 153.146 183.261 150.998C183.24 148.828 185.109 147.432 187.859 147.432ZM187.859 148.764C186.054 148.764 184.851 149.645 184.872 150.998C184.851 152.352 186.054 153.211 187.859 153.189C189.642 153.211 190.845 152.352 190.867 150.998C190.845 149.645 189.642 148.764 187.859 148.764ZM197.935 159.914V161.332H185.109V155.832H186.763V159.914H197.935ZM216.797 142.641V150.203H219.999V151.621H216.797V161.783H215.122V142.641H216.797ZM211.77 144.51V145.906H204.53V155.574C207.989 155.574 210.438 155.413 213.274 154.887L213.489 156.348C210.503 156.885 207.989 156.992 204.358 156.992H202.854V144.51H211.77ZM223.929 160.129C223.177 160.129 222.533 159.506 222.554 158.732C222.533 157.98 223.177 157.357 223.929 157.357C224.681 157.357 225.304 157.98 225.304 158.732C225.304 159.506 224.681 160.129 223.929 160.129Z" fill="black" fill-opacity="0.7"/>
<rect width="277" height="45" transform="translate(48 195)" fill="white"/>
<path d="M75.0977 207.641V226.783H73.4005V207.641H75.0977ZM64.9356 209.123C67.7716 209.145 69.8126 211.723 69.8126 215.783C69.8126 219.844 67.7716 222.422 64.9356 222.422C62.0782 222.422 60.0587 219.844 60.0587 215.783C60.0587 211.723 62.0782 209.145 64.9356 209.123ZM64.9356 210.627C63.0235 210.648 61.6915 212.668 61.6915 215.783C61.6915 218.898 63.0235 220.918 64.9356 220.918C66.8477 220.918 68.1798 218.898 68.1798 215.783C68.1798 212.668 66.8477 210.648 64.9356 210.627ZM94.4535 219.65C98.3851 219.65 100.748 220.939 100.748 223.174C100.748 225.43 98.3851 226.719 94.4535 226.74C90.5218 226.719 88.1156 225.43 88.1156 223.174C88.1156 220.939 90.5218 219.65 94.4535 219.65ZM94.4535 220.982C91.5745 221.004 89.7913 221.799 89.8128 223.174C89.7913 224.549 91.5745 225.365 94.4535 225.365C97.3538 225.365 99.1156 224.549 99.1156 223.174C99.1156 221.799 97.3538 221.004 94.4535 220.982ZM100.576 207.641V212.453H103.455V213.893H100.576V219.135H98.9007V207.641H100.576ZM88.1156 208.844V211.766H93.68V208.844H95.3558V217.652H86.4613V208.844H88.1156ZM88.1156 216.277H93.68V213.098H88.1156V216.277ZM121.91 207.641V226.74H120.277V207.641H121.91ZM118.064 208.049V225.773H116.453V216.492H114.003C113.821 220.209 112.242 222.529 109.878 222.529C107.386 222.529 105.775 219.951 105.775 215.891C105.775 211.83 107.386 209.252 109.878 209.252C112.199 209.252 113.767 211.497 113.982 215.096H116.453V208.049H118.064ZM109.878 210.842C108.331 210.842 107.343 212.775 107.365 215.891C107.343 218.984 108.331 220.939 109.878 220.918C111.425 220.939 112.414 218.984 112.414 215.891C112.414 212.775 111.425 210.842 109.878 210.842ZM132.157 212.775C132.157 216.234 134.37 219.715 137.141 220.982L136.131 222.357C133.961 221.24 132.168 218.952 131.319 216.234C130.47 219.092 128.676 221.541 126.506 222.701L125.411 221.348C128.204 219.973 130.438 216.299 130.438 212.775V209.295H132.157V212.775ZM141.266 207.641V226.783H139.59V215.547H135.057V214.172H139.59V207.641H141.266ZM160.773 213.441V214.795H147.689V208.35H149.365V213.441H160.773ZM162.793 217.395V218.77H145.304V217.395H162.793ZM160.881 224.871V226.268H147.582V220.725H149.258V224.871H160.881ZM187.949 207.641V226.74H186.338V216.729H183.523V225.752H181.977V208.07H183.523V215.332H186.338V207.641H187.949ZM179.484 209.982V211.379H174.006V220.574C176.638 220.563 178.464 220.467 180.58 220.037L180.73 221.455C178.432 221.928 176.477 222.014 173.555 222.014H172.33V209.982H179.484ZM208.917 217.094V218.447H201.032V220.381C204.674 220.531 206.769 221.638 206.79 223.539C206.769 225.602 204.362 226.697 200.216 226.697C196.069 226.697 193.62 225.602 193.62 223.539C193.62 221.638 195.736 220.542 199.378 220.381V218.447H191.515V217.094H208.917ZM201.032 207.598V209.51H207.155V210.885H201.161C201.322 213.001 204.33 214.419 207.886 214.752L207.37 216.062C204.201 215.729 201.376 214.602 200.216 212.668C199.045 214.602 196.209 215.729 193.062 216.062L192.524 214.752C196.08 214.419 199.088 213.001 199.292 210.885H193.319V209.51H199.378V207.598H201.032ZM200.216 221.648C197.122 221.648 195.317 222.336 195.339 223.539C195.317 224.742 197.122 225.408 200.216 225.387C203.267 225.408 205.093 224.742 205.093 223.539C205.093 222.336 203.267 221.648 200.216 221.648ZM233.644 207.641V217.523H231.947V212.561H227.693V211.164H231.947V207.641H233.644ZM233.644 218.49V223.045H222.966V225.129H234.353V226.482H221.312V221.756H231.968V219.844H221.269V218.49H233.644ZM224.32 210.068C224.298 212.582 226.275 214.859 229.068 215.783L228.165 217.094C226.049 216.342 224.363 214.838 223.525 212.904C222.708 215.085 220.979 216.75 218.712 217.566L217.788 216.213C220.667 215.268 222.644 212.861 222.665 210.068V208.264H224.32V210.068ZM253.687 209.424C253.687 212.109 257.21 214.451 260.648 214.924L259.96 216.299C256.996 215.805 254.063 214.161 252.828 211.809C251.603 214.172 248.66 215.805 245.695 216.299L245.007 214.924C248.445 214.451 251.947 212.152 251.947 209.424V208.328H253.687V209.424ZM261.507 218.404V219.822H253.601V226.74H251.947V219.822H244.105V218.404H261.507ZM274.203 218.855V221.24H277.683V218.855H279.252V226.482H272.613V218.855H274.203ZM274.203 225.15H277.683V222.529H274.203V225.15ZM284.709 220.359C284.687 222.379 285.89 224.484 288.232 225.344L287.351 226.633C285.59 225.924 284.429 224.581 283.849 222.98C283.237 224.549 282.077 225.902 280.39 226.633L279.51 225.344C281.808 224.398 283.033 222.293 283.033 220.359V218.727H284.709V220.359ZM275.664 208.5C278.22 208.5 280.176 209.95 280.541 212.152H284.537V207.641H286.234V217.76H284.537V213.549H280.562C280.219 215.805 278.253 217.287 275.664 217.287C272.763 217.287 270.701 215.504 270.701 212.883C270.701 210.283 272.763 208.5 275.664 208.5ZM275.664 209.918C273.709 209.918 272.312 211.143 272.312 212.883C272.312 214.645 273.709 215.891 275.664 215.891C277.597 215.891 278.972 214.645 278.972 212.883C278.972 211.143 277.597 209.918 275.664 209.918ZM305.075 207.641V215.203H308.276V216.621H305.075V226.783H303.399V207.641H305.075ZM300.048 209.51V210.906H292.808V220.574C296.266 220.574 298.716 220.413 301.552 219.887L301.766 221.348C298.78 221.885 296.266 221.992 292.636 221.992H291.132V209.51H300.048ZM312.207 225.129C311.455 225.129 310.811 224.506 310.832 223.732C310.811 222.98 311.455 222.357 312.207 222.357C312.959 222.357 313.582 222.98 313.582 223.732C313.582 224.506 312.959 225.129 312.207 225.129Z" fill="black" fill-opacity="0.7"/>
</svg>
