<svg width="305" height="240" viewBox="0 0 305 240" fill="none" xmlns="http://www.w3.org/2000/svg">
<rect width="217" height="45" transform="translate(24)" fill="white"/>
<path d="M41.5625 17.7754C41.541 21.2559 43.9258 24.7793 46.7402 26.0469L45.709 27.3789C43.5391 26.3154 41.6592 24.0703 40.7461 21.3418C39.8545 24.2314 37.9746 26.6377 35.7402 27.7656L34.666 26.3477C37.502 25.0371 39.8652 21.4062 39.8867 17.7754V14.2949H41.5625V17.7754ZM50.5215 12.6406V31.7832H48.8242V12.6406H50.5215ZM61.1339 16.1855C61.1339 18.7207 63.003 21.041 65.839 22.0293L64.9796 23.3398C62.7989 22.5664 61.1339 20.998 60.3175 19.0215C59.5011 21.1914 57.7501 22.8779 55.505 23.7051L54.6027 22.3945C57.4601 21.3848 59.4581 18.9141 59.4796 16.1855V15.3691H55.1183V13.9941H65.4308V15.3691H61.1339V16.1855ZM69.5987 12.6406V17.6895H72.4777V19.1289H69.5987V24.1562H67.923V12.6406H69.5987ZM69.5987 25.166V31.7402H67.923V26.541H57.0948V25.166H69.5987ZM91.9631 22.7168V24.0918H74.5608V22.7168H91.9631ZM90.0295 29.9141V31.332H76.8166V25.7676H78.5139V29.9141H90.0295ZM83.262 13.3281C87.3655 13.3066 90.008 14.7246 90.008 17.1094C90.008 19.4941 87.3655 20.9121 83.262 20.9121C79.1155 20.9121 76.4944 19.4941 76.4944 17.1094C76.4944 14.7246 79.1155 13.3066 83.262 13.3281ZM83.262 14.6816C80.1897 14.6816 78.2131 15.6055 78.2346 17.1094C78.2131 18.6133 80.1897 19.5371 83.262 19.5371C86.3127 19.5371 88.2893 18.6133 88.2893 17.1094C88.2893 15.6055 86.3127 14.6816 83.262 14.6816ZM100.877 20.2891L102.553 14.4453H104.143L102.961 20.2891H100.877ZM113.423 18.5059C113.423 21.75 115.787 25.0371 118.601 26.2617L117.656 27.5938C115.421 26.5732 113.488 24.3711 112.607 21.7285C111.705 24.5322 109.782 26.9707 107.601 28.0664L106.591 26.7344C109.32 25.4238 111.705 21.8145 111.726 18.5059V16.0137H107.214V14.6172H117.978V16.0137H113.423V18.5059ZM122.339 12.6406V31.7402H120.642V12.6406H122.339ZM142.319 12.6406V31.7832H140.622V20.998H136.432V19.6016H140.622V12.6406H142.319ZM133.102 18.3125C133.102 21.4922 135.38 24.9512 138.173 26.2188L137.163 27.5723C134.982 26.5088 133.145 24.1992 132.286 21.5352C131.405 24.3604 129.525 26.8096 127.344 27.959L126.313 26.6484C129.085 25.2949 131.384 21.707 131.405 18.3125V16.0137H127.044V14.6172H137.485V16.0137H133.102V18.3125ZM163.846 22.7598V24.1348H156.068V27.873H154.392V24.1348H146.357V22.7598H163.846ZM161.89 29.9141V31.332H148.592V26.1113H150.267V29.9141H161.89ZM150.375 13.2637V15.7129H159.828V13.2637H161.504V20.8906H148.699V13.2637H150.375ZM150.375 19.5156H159.828V17.002H150.375V19.5156ZM181.204 12.6406V17.7324H184.083V19.1719H181.204V24.1562H179.528V12.6406H181.204ZM181.204 25.252V31.4824H169.151V25.252H181.204ZM170.806 26.6055V30.1074H179.528V26.6055H170.806ZM177.702 14.6816V16.0781H166.315V14.6816H171.171V12.4902H172.847V14.6816H177.702ZM172.009 17.0234C174.759 17.0234 176.585 18.377 176.606 20.418C176.585 22.502 174.759 23.834 172.009 23.834C169.237 23.834 167.39 22.502 167.411 20.418C167.39 18.377 169.237 17.0234 172.009 17.0234ZM172.009 18.334C170.204 18.334 169.001 19.1719 169.022 20.418C169.001 21.7285 170.204 22.5234 172.009 22.5449C173.792 22.5234 174.995 21.7285 175.017 20.418C174.995 19.1719 173.792 18.334 172.009 18.334ZM189.453 14.4668L187.777 20.3105H186.188L187.369 14.4668H189.453ZM207.65 12.6406V31.7832H205.952V12.6406H207.65ZM197.488 14.123C200.323 14.1445 202.364 16.7227 202.364 20.7832C202.364 24.8438 200.323 27.4219 197.488 27.4219C194.63 27.4219 192.611 24.8438 192.611 20.7832C192.611 16.7227 194.63 14.1445 197.488 14.123ZM197.488 15.627C195.575 15.6484 194.243 17.668 194.243 20.7832C194.243 23.8984 195.575 25.918 197.488 25.918C199.4 25.918 200.732 23.8984 200.732 20.7832C200.732 17.668 199.4 15.6484 197.488 15.627ZM226.576 12.6406V20.2031H229.778V21.6211H226.576V31.7832H224.901V12.6406H226.576ZM221.549 14.5098V15.9062H214.309V25.5742C217.768 25.5742 220.217 25.4131 223.053 24.8867L223.268 26.3477C220.282 26.8848 217.768 26.9922 214.137 26.9922H212.633V14.5098H221.549Z" fill="black" fill-opacity="0.7"/>
<rect width="192" height="45" transform="translate(64 65)" fill="white"/>
<path d="M85.3691 79.3164V82.9902H89.8378V77.6621H91.5351V91.6055H89.8378V84.3652H85.3691V88.168H76.6034V79.3164H85.3691ZM78.2792 80.7129V86.8145H83.7148V80.7129H78.2792ZM92.0722 94.9141V96.332H79.2675V90.3164H80.9648V94.9141H92.0722ZM102.427 83.5059C102.427 86.75 104.79 90.0371 107.605 91.2617L106.659 92.5938C104.425 91.5732 102.491 89.3711 101.61 86.7285C100.708 89.5322 98.7852 91.9707 96.6045 93.0664L95.5948 91.7344C98.3233 90.4238 100.708 86.8145 100.73 83.5059V81.0137H96.2178V79.6172H106.981V81.0137H102.427V83.5059ZM111.343 77.6406V96.7402H109.646V77.6406H111.343ZM132.955 86.5137V87.8457H115.467V86.5137H132.955ZM130.764 89.3711V93.4316H119.291V95.2578H131.387V96.4824H117.594V92.2715H129.088V90.6387H117.572V89.3711H130.764ZM130.699 78.2207V82.1738H119.42V83.8496H131.043V85.0742H117.744V81.0137H129.002V79.4453H117.68V78.2207H130.699ZM148.293 81.6152C148.293 83.957 150.227 86.041 153.041 86.8789L152.246 88.2109C150.044 87.5234 148.326 86.0947 147.498 84.2578C146.661 86.2881 144.888 87.835 142.621 88.5762L141.784 87.2441C144.62 86.3848 146.639 84.1719 146.639 81.6152V81.2715H142.321V79.918H146.639V77.5547H148.336V79.918H152.612V81.2715H148.293V81.6152ZM156.715 77.6406V82.4961H159.594V83.9141H156.715V88.9629H155.039V77.6406H156.715ZM156.715 89.8438V96.4824H144.662V89.8438H156.715ZM146.317 91.1758V95.1074H155.039V91.1758H146.317ZM168.509 83.5059C168.509 86.75 170.873 90.0371 173.687 91.2617L172.742 92.5938C170.507 91.5732 168.574 89.3711 167.693 86.7285C166.791 89.5322 164.868 91.9707 162.687 93.0664L161.677 91.7344C164.406 90.4238 166.791 86.8145 166.812 83.5059V81.0137H162.3V79.6172H173.064V81.0137H168.509V83.5059ZM177.425 77.6406V96.7402H175.728V77.6406H177.425ZM203.162 78.457V84.8594H197.511V87.1152H205.375V88.4902H187.972V87.1152H195.857V84.8594H190.228V78.457H203.162ZM191.883 79.8105V83.4844H201.486V79.8105H191.883ZM197.511 90.3594C197.511 92.8945 200.562 94.7852 204.043 95.2793L203.355 96.6328C200.455 96.1387 197.812 94.7744 196.674 92.6797C195.524 94.7744 192.871 96.1387 189.97 96.6328L189.326 95.2793C192.763 94.7852 195.814 92.8945 195.814 90.3594V89.6934H197.511V90.3594ZM222.798 77.6621V83.957H225.677V85.375H222.798V91.9707H221.122V77.6621H222.798ZM219.296 80.0039V81.3789H207.909V80.0039H212.765V77.6621H214.44V80.0039H219.296ZM213.602 82.4316C216.331 82.4316 218.179 83.8281 218.2 85.998C218.179 88.1465 216.331 89.5215 213.602 89.5215C210.852 89.5215 208.983 88.1465 209.005 85.998C208.983 83.8281 210.852 82.4316 213.602 82.4316ZM213.602 83.7637C211.798 83.7637 210.595 84.6445 210.616 85.998C210.595 87.3516 211.798 88.2109 213.602 88.1895C215.386 88.2109 216.589 87.3516 216.61 85.998C216.589 84.6445 215.386 83.7637 213.602 83.7637ZM223.679 94.9141V96.332H210.852V90.832H212.507V94.9141H223.679ZM242.541 77.6406V85.2031H245.742V86.6211H242.541V96.7832H240.865V77.6406H242.541ZM237.514 79.5098V80.9062H230.273V90.5742C233.732 90.5742 236.182 90.4131 239.018 89.8867L239.232 91.3477C236.246 91.8848 233.732 91.9922 230.102 91.9922H228.598V79.5098H237.514Z" fill="black" fill-opacity="0.7"/>
<rect width="264" height="45" transform="translate(0 130)" fill="white"/>
<path d="M26.1133 154.887V156.111H14.6406V157.594H25.6621V158.754H14.6406V160.322H26.3281V161.525H12.9434V154.887H26.1133ZM27.166 144.102V145.348H11.6758V144.102H18.6367V142.34H20.3125V144.102H27.166ZM19.4746 146.143C23.4922 146.143 25.6621 147.002 25.6621 148.721C25.6621 150.439 23.4922 151.299 19.4746 151.299C15.457 151.299 13.2656 150.439 13.2656 148.721C13.2656 147.002 15.457 146.143 19.4746 146.143ZM19.4746 147.324C16.5742 147.324 15.0488 147.797 15.0703 148.721C15.0488 149.645 16.5742 150.117 19.4746 150.117C22.3535 150.117 23.8789 149.645 23.9004 148.721C23.8789 147.797 22.3535 147.324 19.4746 147.324ZM28.1758 152.373V153.662H10.7734V152.373H28.1758ZM35.8019 144.123C38.4015 144.145 40.2706 146.368 40.5499 149.945H44.8253V142.641H46.5011V161.783H44.8253V151.342H40.5714C40.3673 155.08 38.4659 157.422 35.8019 157.422C32.9874 157.422 31.0109 154.844 31.0109 150.783C31.0109 146.723 32.9874 144.145 35.8019 144.123ZM35.8019 145.627C33.9112 145.648 32.6222 147.668 32.6222 150.783C32.6222 153.898 33.9112 155.918 35.8019 155.918C37.671 155.918 38.9816 153.898 38.9816 150.783C38.9816 147.668 37.671 145.648 35.8019 145.627ZM57.4358 146.744C57.4358 149.322 59.4768 151.643 62.3342 152.545L61.4748 153.898C59.2512 153.146 57.4787 151.578 56.6194 149.559C55.7815 151.739 53.9875 153.458 51.7209 154.285L50.8401 152.932C53.6975 151.922 55.7385 149.451 55.7385 146.744V145.627H51.2698V144.252H61.8401V145.627H57.4358V146.744ZM66.3303 142.662V156.67H64.6545V142.662H66.3303ZM66.9319 159.914V161.332H53.9983V155.338H55.6741V159.914H66.9319ZM92.6899 142.662V155.596H90.9927V149.451H86.8032V148.033H90.9927V142.662H92.6899ZM86.7173 144.166C86.6958 149.064 83.4302 152.588 77.9302 154.35L77.1782 152.996C81.7436 151.589 84.5581 148.936 84.9126 145.541H78.1235V144.166H86.7173ZM87.3188 154.801C87.3188 157.594 90.3696 159.678 93.7427 160.279L93.0337 161.633C90.2192 161.085 87.6303 159.613 86.5024 157.379C85.3315 159.624 82.7104 161.117 79.8637 161.676L79.1762 160.344C82.5493 159.764 85.643 157.615 85.6645 154.801V153.92H87.3188V154.801ZM105.451 142.984C109.705 142.984 112.197 144.145 112.197 146.271C112.197 148.441 109.705 149.602 105.451 149.623C101.197 149.602 98.6832 148.441 98.6832 146.271C98.6832 144.145 101.197 142.984 105.451 142.984ZM105.451 144.252C102.271 144.252 100.423 145.025 100.445 146.271C100.423 147.604 102.271 148.334 105.451 148.334C108.609 148.334 110.478 147.604 110.478 146.271C110.478 145.025 108.609 144.252 105.451 144.252ZM114.152 150.912V152.287H96.7496V150.912H114.152ZM111.918 153.941V158.217H100.574V160.193H112.498V161.525H98.898V156.971H110.263V155.23H98.8551V153.941H111.918ZM138.814 142.641V154.221H137.139V142.641H138.814ZM138.814 155.252V161.482H126.396V155.252H138.814ZM128.051 156.605V160.107H137.16V156.605H128.051ZM135.033 144.703V146.078H123.324V144.703H128.33V142.49H130.027V144.703H135.033ZM129.189 147.023C132.004 147.023 133.873 148.355 133.873 150.418C133.873 152.502 132.004 153.834 129.189 153.834C126.353 153.834 124.484 152.502 124.506 150.418C124.484 148.355 126.353 147.023 129.189 147.023ZM129.189 148.312C127.32 148.312 126.096 149.15 126.117 150.418C126.096 151.729 127.32 152.523 129.189 152.545C131.037 152.523 132.262 151.729 132.262 150.418C132.262 149.15 131.037 148.312 129.189 148.312ZM149.298 148.871C149.298 151.922 151.296 155.059 154.067 156.391L153.079 157.701C150.974 156.67 149.309 154.586 148.524 152.115C147.686 154.769 145.914 156.992 143.733 158.045L142.767 156.734C145.56 155.424 147.644 152.158 147.665 148.871V147.346H143.282V145.971H147.644V143.006H149.341V145.971H153.638V147.346H149.298V148.871ZM157.72 142.641V150.482H160.921V151.922H157.72V161.74H156.044V142.641H157.72ZM179.182 142.641V161.74H177.57V142.641H179.182ZM175.164 143.156V160.773H173.553V151.857H169.514C168.343 154.081 166.506 156.047 163.842 157.615L162.854 156.391C167.011 153.931 169.095 150.482 169.406 146.486H163.67V145.09H171.082C171.071 146.97 170.771 148.785 170.137 150.482H173.553V143.156H175.164ZM206.616 157.873V159.291H189.127V157.873H196.991V153.211H191.19V144.252H204.446V153.211H198.645V157.873H206.616ZM192.844 145.605V151.857H202.813V145.605H192.844ZM226.423 152.717V154.092H209.021V152.717H226.423ZM224.49 159.914V161.332H211.277V155.768H212.974V159.914H224.49ZM217.722 143.328C221.826 143.307 224.468 144.725 224.468 147.109C224.468 149.494 221.826 150.912 217.722 150.912C213.576 150.912 210.955 149.494 210.955 147.109C210.955 144.725 213.576 143.307 217.722 143.328ZM217.722 144.682C214.65 144.682 212.673 145.605 212.695 147.109C212.673 148.613 214.65 149.537 217.722 149.537C220.773 149.537 222.749 148.613 222.749 147.109C222.749 145.605 220.773 144.682 217.722 144.682ZM243.696 142.641V150.203H246.897V151.621H243.696V161.783H242.02V142.641H243.696ZM238.669 144.51V145.906H231.428V155.574C234.887 155.574 237.336 155.413 240.172 154.887L240.387 156.348C237.401 156.885 234.887 156.992 231.256 156.992H229.753V144.51H238.669ZM250.828 160.129C250.076 160.129 249.431 159.506 249.453 158.732C249.431 157.98 250.076 157.357 250.828 157.357C251.58 157.357 252.203 157.98 252.203 158.732C252.203 159.506 251.58 160.129 250.828 160.129Z" fill="black" fill-opacity="0.7"/>
<rect width="238" height="45" transform="translate(64 195)" fill="white"/>
<path d="M79.2505 218.855V221.24H82.731V218.855H84.2994V226.482H77.6607V218.855H79.2505ZM79.2505 225.15H82.731V222.529H79.2505V225.15ZM89.7564 220.359C89.7349 222.379 90.938 224.484 93.2798 225.344L92.399 226.633C90.6373 225.924 89.4771 224.581 88.897 222.98C88.2847 224.549 87.1246 225.902 85.438 226.633L84.5572 225.344C86.856 224.398 88.0806 222.293 88.0806 220.359V218.727H89.7564V220.359ZM80.7115 208.5C83.2681 208.5 85.2232 209.95 85.5884 212.152H89.5845V207.641H91.2818V217.76H89.5845V213.549H85.6099C85.2662 215.805 83.3004 217.287 80.7115 217.287C77.8111 217.287 75.7486 215.504 75.7486 212.883C75.7486 210.283 77.8111 208.5 80.7115 208.5ZM80.7115 209.918C78.7564 209.918 77.3599 211.143 77.3599 212.883C77.3599 214.645 78.7564 215.891 80.7115 215.891C82.6451 215.891 84.0201 214.645 84.0201 212.883C84.0201 211.143 82.6451 209.918 80.7115 209.918ZM100.476 209.123C103.076 209.145 104.945 211.368 105.224 214.945H109.5V207.641H111.175V226.783H109.5V216.342H105.246C105.042 220.08 103.14 222.422 100.476 222.422C97.6618 222.422 95.6852 219.844 95.6852 215.783C95.6852 211.723 97.6618 209.145 100.476 209.123ZM100.476 210.627C98.5856 210.648 97.2966 212.668 97.2966 215.783C97.2966 218.898 98.5856 220.918 100.476 220.918C102.345 220.918 103.656 218.898 103.656 215.783C103.656 212.668 102.345 210.648 100.476 210.627ZM122.11 211.744C122.11 214.322 124.151 216.643 127.009 217.545L126.149 218.898C123.926 218.146 122.153 216.578 121.294 214.559C120.456 216.739 118.662 218.458 116.395 219.285L115.514 217.932C118.372 216.922 120.413 214.451 120.413 211.744V210.627H115.944V209.252H126.514V210.627H122.11V211.744ZM131.005 207.662V221.67H129.329V207.662H131.005ZM131.606 224.914V226.332H118.673V220.338H120.348V224.914H131.606ZM157.364 207.662V220.596H155.667V214.451H151.478V213.033H155.667V207.662H157.364ZM151.392 209.166C151.37 214.064 148.105 217.588 142.605 219.35L141.853 217.996C146.418 216.589 149.232 213.936 149.587 210.541H142.798V209.166H151.392ZM151.993 219.801C151.993 222.594 155.044 224.678 158.417 225.279L157.708 226.633C154.894 226.085 152.305 224.613 151.177 222.379C150.006 224.624 147.385 226.117 144.538 226.676L143.851 225.344C147.224 224.764 150.317 222.615 150.339 219.801V218.92H151.993V219.801ZM178.848 215.676V217.029H161.424V215.676H178.848ZM176.764 212.732V214.107H163.744V208.307H176.57V209.66H165.442V212.732H176.764ZM176.592 218.748V223.174H165.248V225.15H177.172V226.525H163.572V221.906H174.938V220.059H163.529V218.748H176.592ZM198.806 222.959V224.377H181.318V222.959H189.181V219.35H183.509V213.463H194.939V210.455H183.466V209.059H196.593V214.838H185.185V217.953H197.044V219.35H190.835V222.959H198.806ZM225.015 216.729V218.125H207.613V216.729H225.015ZM216.314 219.801C220.417 219.801 222.867 221.068 222.888 223.26C222.867 225.473 220.417 226.697 216.314 226.697C212.189 226.697 209.718 225.473 209.718 223.26C209.718 221.068 212.189 219.801 216.314 219.801ZM216.314 221.133C213.242 221.154 211.416 221.906 211.437 223.26C211.416 224.592 213.242 225.344 216.314 225.344C219.343 225.344 221.191 224.592 221.191 223.26C221.191 221.906 219.343 221.154 216.314 221.133ZM223.468 208.629V210.025H217.41C217.474 212.195 220.654 213.85 224.048 214.236L223.425 215.59C220.299 215.192 217.367 213.796 216.314 211.658C215.272 213.796 212.35 215.192 209.203 215.59L208.601 214.236C211.931 213.85 215.132 212.195 215.218 210.025H209.203V208.629H223.468ZM243.34 207.641V218.963H241.643V215.955H237.174V217.588H228.409V209.102H237.174V210.756H241.643V207.641H243.34ZM230.085 210.477V216.213H235.52V210.477H230.085ZM237.003 219.521C240.977 219.521 243.405 220.832 243.405 223.131C243.405 225.408 240.977 226.697 237.003 226.697C233.028 226.697 230.6 225.408 230.6 223.131C230.6 220.832 233.028 219.521 237.003 219.521ZM237.003 220.832C234.081 220.854 232.255 221.691 232.276 223.131C232.255 224.506 234.081 225.365 237.003 225.365C239.924 225.365 241.729 224.506 241.729 223.131C241.729 221.691 239.924 220.854 237.003 220.832ZM237.174 214.537H241.643V212.152H237.174V214.537ZM258.508 213.914V215.289H254.64V217.953C256.424 217.878 258.207 217.749 259.861 217.566L259.99 218.812C255.886 219.371 251.332 219.5 247.744 219.5L247.486 218.125C249.162 218.114 251.042 218.093 252.965 218.018V215.289H249.226V208.887H258.357V210.283H250.924V213.914H258.508ZM263.148 207.662V221.949H261.451V207.662H263.148ZM263.771 224.914V226.332H250.752V220.961H252.428V224.914H263.771ZM282.075 207.641V215.203H285.276V216.621H282.075V226.783H280.399V207.641H282.075ZM277.048 209.51V210.906H269.807V220.574C273.266 220.574 275.716 220.413 278.552 219.887L278.766 221.348C275.78 221.885 273.266 221.992 269.636 221.992H268.132V209.51H277.048ZM289.207 225.129C288.455 225.129 287.811 224.506 287.832 223.732C287.811 222.98 288.455 222.357 289.207 222.357C289.959 222.357 290.582 222.98 290.582 223.732C290.582 224.506 289.959 225.129 289.207 225.129Z" fill="black" fill-opacity="0.7"/>
</svg>
