<svg width="467" height="255" viewBox="0 0 467 255" fill="none" xmlns="http://www.w3.org/2000/svg">
<rect width="231" height="45" transform="translate(166)" fill="white"/>
<path d="M194.402 27.873V29.291H176.914V27.873H184.799V23.2324H186.496V27.873H194.402ZM186.496 16.2715C186.496 19.3223 190.277 21.9434 193.564 22.4805L192.877 23.8125C189.955 23.2432 186.872 21.3848 185.658 18.7207C184.423 21.3955 181.35 23.2969 178.482 23.8984L177.773 22.5449C180.996 21.9863 184.756 19.3223 184.756 16.2715V15.7988H178.353V14.3809H192.898V15.7988H186.496V16.2715ZM214.21 22.0938V23.4902H196.807V22.0938H201.126V19.4082C199.6 18.8174 198.741 17.8398 198.741 16.5508C198.741 14.2949 201.319 13.0059 205.509 13.0059C209.655 13.0059 212.255 14.2949 212.255 16.5508C212.255 17.8291 211.406 18.8066 209.891 19.3867V22.0938H214.21ZM205.509 24.9512C209.612 24.9512 212.061 26.1328 212.083 28.3242C212.061 30.4941 209.612 31.6973 205.509 31.6973C201.362 31.6973 198.913 30.4941 198.913 28.3242C198.913 26.1328 201.362 24.9512 205.509 24.9512ZM205.509 26.2402C202.436 26.2617 200.61 27.0137 200.632 28.3242C200.61 29.6133 202.436 30.3867 205.509 30.3867C208.538 30.3867 210.386 29.6133 210.386 28.3242C210.386 27.0137 208.538 26.2617 205.509 26.2402ZM205.509 14.3379C202.393 14.3379 200.46 15.1758 200.481 16.5508C200.46 17.9473 202.393 18.7637 205.509 18.7637C208.602 18.7637 210.536 17.9473 210.536 16.5508C210.536 15.1758 208.602 14.3379 205.509 14.3379ZM202.802 22.0938H208.216V19.8594C207.41 19.999 206.508 20.0742 205.509 20.0742C204.51 20.0742 203.607 19.999 202.802 19.8594V22.0938ZM231.633 12.5762V17.2168H234.533V18.6133H231.633V23.1465H229.957V12.5762H231.633ZM231.633 24.1348V28.3672H221.148V30.2363H232.342V31.5254H219.494V27.1211H229.957V25.4023H219.451V24.1348H231.633ZM228.131 14.3809V15.7344H216.744V14.3809H221.6V12.4473H223.275V14.3809H228.131ZM222.437 16.5938C225.209 16.5938 227.014 17.7969 227.035 19.7305C227.014 21.6641 225.209 22.8672 222.437 22.8672C219.644 22.8672 217.818 21.6641 217.84 19.7305C217.818 17.7969 219.644 16.5938 222.437 16.5938ZM222.437 17.8398C220.633 17.8398 219.43 18.5918 219.451 19.7305C219.43 20.8906 220.633 21.5996 222.437 21.5996C224.242 21.5996 225.424 20.8906 225.445 19.7305C225.424 18.5918 224.242 17.8398 222.437 17.8398ZM246.177 14.4238C246.177 17.1094 249.7 19.4512 253.138 19.9238L252.45 21.2988C249.485 20.8047 246.553 19.1611 245.317 16.8086C244.093 19.1719 241.149 20.8047 238.185 21.2988L237.497 19.9238C240.935 19.4512 244.437 17.1523 244.437 14.4238V13.3281H246.177V14.4238ZM253.997 23.4043V24.8223H246.091V31.7402H244.437V24.8223H236.595V23.4043H253.997ZM273.955 23.168V24.5645H256.467V23.168H264.373V21.1484H258.744V16.4863H270.002V14.5098H258.68V13.1348H271.699V17.7539H260.42V19.7949H272.108V21.1484H266.028V23.168H273.955ZM271.807 26.0254V31.5684H270.11V27.4004H258.422V26.0254H271.807ZM297.565 12.6406V20.1602H300.766V21.6211H297.565V31.7402H295.889V12.6406H297.565ZM285.254 14.2734V19.3223H290.84V14.2734H292.516V27.1641H283.579V14.2734H285.254ZM285.254 25.7461H290.84V20.6758H285.254V25.7461ZM320.144 22.7812V24.1777H302.656V22.7812H320.144ZM318.232 29.9141V31.332H304.89V25.832H306.587V29.9141H318.232ZM305.921 13.3711V15.7773H309.037V13.3711H310.648V21.041H304.31V13.3711H305.921ZM305.921 19.666H309.037V17.1094H305.921V19.666ZM313.763 13.3711V15.7773H316.857V13.3711H318.468V21.041H312.13V13.3711H313.763ZM313.763 19.666H316.857V17.1094H313.763V19.666ZM344.248 25.209V31.4824H331.099V25.209H344.248ZM332.775 26.5625V30.1074H342.594V26.5625H332.775ZM344.162 13.3496V19.752H338.511V21.9219H346.375V23.3184H328.972V21.9219H336.836V19.752H331.228V13.3496H344.162ZM332.883 14.7246V18.377H342.486V14.7246H332.883ZM364.614 12.6406V31.7832H362.917V12.6406H364.614ZM354.452 14.123C357.288 14.1445 359.329 16.7227 359.329 20.7832C359.329 24.8438 357.288 27.4219 354.452 27.4219C351.595 27.4219 349.575 24.8438 349.575 20.7832C349.575 16.7227 351.595 14.1445 354.452 14.123ZM354.452 15.627C352.54 15.6484 351.208 17.668 351.208 20.7832C351.208 23.8984 352.54 25.918 354.452 25.918C356.364 25.918 357.696 23.8984 357.696 20.7832C357.696 17.668 356.364 15.6484 354.452 15.627ZM383.541 12.6406V20.2031H386.742V21.6211H383.541V31.7832H381.865V12.6406H383.541ZM378.514 14.5098V15.9062H371.273V25.5742C374.732 25.5742 377.182 25.4131 380.018 24.8867L380.232 26.3477C377.246 26.8848 374.732 26.9922 371.102 26.9922H369.598V14.5098H378.514Z" fill="black" fill-opacity="0.7"/>
<rect width="290" height="45" transform="translate(134 65)" fill="white"/>
<path d="M150.186 78.3281C151.861 78.3281 153.279 78.9512 154.16 79.9824H159.059V77.6406H160.734V87.459H159.059V85.2676H154.225C153.333 86.3418 151.894 86.9863 150.186 86.9863C147.307 86.9863 145.223 85.2246 145.223 82.6465C145.223 80.0898 147.307 78.3281 150.186 78.3281ZM150.186 79.7246C148.231 79.7031 146.834 80.9277 146.834 82.6465C146.834 84.3867 148.231 85.6113 150.186 85.6328C152.076 85.6113 153.494 84.3867 153.494 82.6465C153.494 80.9277 152.076 79.7031 150.186 79.7246ZM160.734 88.4258V93.002H150.078V95.1289H161.465V96.4824H148.402V91.7129H159.059V89.7793H148.359V88.4258H160.734ZM154.934 81.3359C155.052 81.7441 155.127 82.1846 155.127 82.6465C155.127 83.0977 155.052 83.5166 154.934 83.9141H159.059V81.3359H154.934ZM169.95 79.123C172.55 79.1445 174.419 81.3682 174.698 84.9453H178.974V77.6406H180.65V96.7832H178.974V86.3418H174.72C174.516 90.0801 172.614 92.4219 169.95 92.4219C167.136 92.4219 165.159 89.8438 165.159 85.7832C165.159 81.7227 167.136 79.1445 169.95 79.123ZM169.95 80.627C168.06 80.6484 166.771 82.668 166.771 85.7832C166.771 88.8984 168.06 90.918 169.95 90.918C171.82 90.918 173.13 88.8984 173.13 85.7832C173.13 82.668 171.82 80.6484 169.95 80.627ZM188.705 77.9629V79.7891H198.159V77.9629H199.834V84.2363H194.205V86.127H202.112V87.502H184.709V86.127H192.551V84.2363H187.03V77.9629H188.705ZM188.705 82.9258H198.159V81.0781H188.705V82.9258ZM199.877 89.0918V93.3242H188.534V95.1934H200.457V96.5254H186.858V92.0781H198.223V90.3809H186.815V89.0918H199.877ZM216.419 78.3496C219.276 78.3711 221.36 80.0898 221.36 82.582C221.36 85.0742 219.276 86.793 216.419 86.793C213.518 86.793 211.456 85.0742 211.456 82.582C211.456 80.0898 213.518 78.3711 216.419 78.3496ZM216.419 79.7676C214.506 79.7676 213.088 80.9277 213.11 82.582C213.088 84.2578 214.506 85.418 216.419 85.418C218.309 85.418 219.727 84.2578 219.727 82.582C219.727 80.9277 218.309 79.7676 216.419 79.7676ZM226.774 77.6406V87.459H225.098V77.6406H226.774ZM226.774 88.3828V92.9805H216.053V95.1289H227.461V96.4824H214.399V91.7129H225.098V89.7363H214.356V88.3828H226.774ZM241.102 88.8555V91.2402H244.583V88.8555H246.151V96.4824H239.513V88.8555H241.102ZM241.102 95.1504H244.583V92.5293H241.102V95.1504ZM251.608 90.3594C251.587 92.3789 252.79 94.4844 255.132 95.3438L254.251 96.6328C252.489 95.9238 251.329 94.5811 250.749 92.9805C250.137 94.5488 248.976 95.9023 247.29 96.6328L246.409 95.3438C248.708 94.3984 249.932 92.293 249.932 90.3594V88.7266H251.608V90.3594ZM242.563 78.5C245.12 78.5 247.075 79.9502 247.44 82.1523H251.436V77.6406H253.134V87.7598H251.436V83.5488H247.462C247.118 85.8047 245.152 87.2871 242.563 87.2871C239.663 87.2871 237.6 85.5039 237.6 82.8828C237.6 80.2832 239.663 78.5 242.563 78.5ZM242.563 79.918C240.608 79.918 239.212 81.1426 239.212 82.8828C239.212 84.6445 240.608 85.8906 242.563 85.8906C244.497 85.8906 245.872 84.6445 245.872 82.8828C245.872 81.1426 244.497 79.918 242.563 79.918ZM265.894 77.9844C270.148 77.9844 272.641 79.1445 272.641 81.2715C272.641 83.4414 270.148 84.6016 265.894 84.623C261.641 84.6016 259.127 83.4414 259.127 81.2715C259.127 79.1445 261.641 77.9844 265.894 77.9844ZM265.894 79.252C262.715 79.252 260.867 80.0254 260.889 81.2715C260.867 82.6035 262.715 83.334 265.894 83.334C269.053 83.334 270.922 82.6035 270.922 81.2715C270.922 80.0254 269.053 79.252 265.894 79.252ZM274.596 85.9121V87.2871H257.193V85.9121H274.596ZM272.361 88.9414V93.2168H261.018V95.1934H272.941V96.5254H259.342V91.9707H270.707V90.2305H259.299V88.9414H272.361ZM296.143 78.0703V85.4609H298.463V77.6406H300.074V96.7402H298.463V86.8574H296.143V95.7949H294.574V78.0703H296.143ZM288.215 80.0684V81.4648H285.637V90.3164C286.357 90.2949 287.302 90.209 288.344 89.9512L288.494 91.3906C286.883 91.7559 285.637 91.7559 284.82 91.7559H284.069V80.0684H288.215ZM293.285 80.0684V81.4648H290.578V90.3164C291.47 90.3057 292.533 90.2197 293.694 89.8867L293.844 91.3262C292.254 91.7559 290.944 91.7559 289.826 91.7559H289.053V80.0684H293.285ZM317.024 87.7168V91.2188C318.861 91.1436 320.741 90.9824 322.502 90.7246L322.631 91.9707C318.27 92.7656 313.565 92.7871 310.127 92.7871L309.891 91.3906C311.492 91.3799 313.382 91.3691 315.37 91.3047V87.7168H317.024ZM321.514 80.1543V81.5508H317.024C317.067 84.0215 319.119 86.0303 321.944 86.8359L321.149 88.168C318.85 87.4805 317.056 86.0088 316.207 84.0645C315.37 86.1162 313.586 87.6416 311.288 88.3398L310.471 87.0508C313.296 86.2236 315.284 84.1289 315.327 81.5508H310.944V80.1543H315.37V77.791H317.024V80.1543H321.514ZM325.446 77.6406V96.7832H323.77V77.6406H325.446ZM336.058 80.7344C336.058 83.334 338.035 85.7188 340.806 86.6641L339.882 87.9961C337.766 87.2227 336.101 85.6436 335.263 83.6562C334.447 85.9014 332.75 87.6738 330.515 88.5332L329.613 87.1797C332.47 86.1055 334.382 83.5488 334.404 80.6055V78.6289H336.058V80.7344ZM344.609 77.6406V82.625H347.488V84.043H344.609V89.2637H342.933V77.6406H344.609ZM338.486 89.7578C342.418 89.7578 344.781 91.0254 344.781 93.2168C344.781 95.4512 342.418 96.6973 338.486 96.6973C334.554 96.6973 332.148 95.4512 332.148 93.2168C332.148 91.0254 334.554 89.7578 338.486 89.7578ZM338.486 91.1113C335.607 91.1113 333.824 91.9062 333.845 93.2168C333.824 94.5703 335.607 95.3438 338.486 95.3652C341.386 95.3438 343.148 94.5703 343.148 93.2168C343.148 91.9062 341.386 91.1113 338.486 91.1113ZM355.823 79.0371C358.831 79.0371 360.958 80.8633 360.958 83.5273C360.958 86.1914 358.831 88.0176 355.823 88.0176C352.815 88.0176 350.645 86.1914 350.667 83.5273C350.645 80.8633 352.815 79.0371 355.823 79.0371ZM355.823 80.5195C353.782 80.5195 352.299 81.7441 352.321 83.5273C352.299 85.3105 353.782 86.5352 355.823 86.5352C357.842 86.5352 359.303 85.3105 359.303 83.5273C359.303 81.7441 357.842 80.5195 355.823 80.5195ZM365.233 77.6406V96.7832H363.557V77.6406H365.233ZM349.678 91.1328C353.202 91.1328 358.057 91.1113 362.29 90.4883L362.419 91.7344C358.057 92.5508 353.352 92.5723 349.915 92.5723L349.678 91.1328ZM382.247 80.7344C382.247 83.334 384.224 85.7188 386.995 86.6641L386.071 87.9961C383.955 87.2227 382.29 85.6436 381.452 83.6562C380.636 85.9014 378.938 87.6738 376.704 88.5332L375.802 87.1797C378.659 86.1055 380.571 83.5488 380.593 80.6055V78.6289H382.247V80.7344ZM390.798 77.6406V82.625H393.677V84.043H390.798V89.2637H389.122V77.6406H390.798ZM384.675 89.7578C388.606 89.7578 390.97 91.0254 390.97 93.2168C390.97 95.4512 388.606 96.6973 384.675 96.6973C380.743 96.6973 378.337 95.4512 378.337 93.2168C378.337 91.0254 380.743 89.7578 384.675 89.7578ZM384.675 91.1113C381.796 91.1113 380.013 91.9062 380.034 93.2168C380.013 94.5703 381.796 95.3438 384.675 95.3652C387.575 95.3438 389.337 94.5703 389.337 93.2168C389.337 91.9062 387.575 91.1113 384.675 91.1113ZM404.096 79.8535V81.2285H398.145V84.9023H403.816V86.2559H398.145V90.5742C400.98 90.5635 402.731 90.4883 404.826 90.1016L404.977 91.498C402.742 91.9277 400.895 92.0137 397.758 92.0137H396.533V79.8535H404.096ZM412.131 77.6406V96.7402H410.498V86.7285H407.877V95.7734H406.244V78.0488H407.877V85.332H410.498V77.6406H412.131Z" fill="black" fill-opacity="0.7"/>
<rect width="158" height="45" transform="translate(244 130)" fill="white"/>
<path d="M269.739 142.641V150.525H272.94V151.922H269.739V161.74H268.064V142.641H269.739ZM266.216 145.713V147.109H254.851V145.713H259.771V142.877H261.446V145.713H266.216ZM260.63 148.699C263.337 148.699 265.292 150.504 265.314 153.082C265.292 155.66 263.337 157.465 260.63 157.465C257.901 157.465 255.925 155.66 255.946 153.082C255.925 150.504 257.901 148.699 260.63 148.699ZM260.63 150.117C258.847 150.117 257.536 151.363 257.558 153.082C257.536 154.822 258.847 156.047 260.63 156.025C262.392 156.047 263.681 154.822 263.702 153.082C263.681 151.363 262.392 150.117 260.63 150.117ZM281.684 148.506C281.684 151.75 284.047 155.037 286.861 156.262L285.916 157.594C283.682 156.573 281.748 154.371 280.867 151.729C279.965 154.532 278.042 156.971 275.861 158.066L274.852 156.734C277.58 155.424 279.965 151.814 279.986 148.506V146.014H275.475V144.617H286.238V146.014H281.684V148.506ZM290.6 142.641V161.74H288.903V142.641H290.6ZM304.392 144.381V153.168H295.562V144.381H304.392ZM297.216 145.756V151.814H302.759V145.756H297.216ZM309.677 142.641V148.463H312.556V149.881H309.677V156.648H308.001V142.641H309.677ZM310.558 159.914V161.332H297.732V155.316H299.386V159.914H310.558ZM336.789 142.641V161.783H335.091V142.641H336.789ZM323.834 144.273V149.322H329.527V144.273H331.181V157.164H322.158V144.273H323.834ZM323.834 155.746H329.527V150.676H323.834V155.746ZM358.423 157.959V159.377H340.934V157.959H348.798V154.35H343.126V148.463H354.555V145.455H343.083V144.059H356.21V149.838H344.801V152.953H356.661V154.35H350.452V157.959H358.423ZM378.316 157.852V159.248H360.828V157.852H368.648V153.168H370.303V157.852H378.316ZM370.345 145.412C370.345 148.613 374.127 151.406 377.457 151.986L376.705 153.383C373.794 152.792 370.721 150.815 369.486 148.055C368.229 150.805 365.178 152.792 362.267 153.383L361.515 151.986C364.845 151.406 368.584 148.613 368.584 145.412V143.951H370.345V145.412ZM382.741 160.129C381.989 160.129 381.345 159.506 381.366 158.732C381.345 157.98 381.989 157.357 382.741 157.357C383.493 157.357 384.116 157.98 384.116 158.732C384.116 159.506 383.493 160.129 382.741 160.129ZM389.207 160.129C388.455 160.129 387.811 159.506 387.832 158.732C387.811 157.98 388.455 157.357 389.207 157.357C389.959 157.357 390.582 157.98 390.582 158.732C390.582 159.506 389.959 160.129 389.207 160.129Z" fill="black" fill-opacity="0.7"/>
<rect width="251" height="45" transform="translate(166 195)" fill="white"/>
<path d="M195.112 217.416V218.812H187.334V222.723H185.659V218.812H177.623V217.416H195.112ZM192.834 208.586V215.225H179.901V208.586H192.834ZM181.555 209.918V213.871H191.159V209.918H181.555ZM193.157 224.914V226.332H179.858V220.832H181.555V224.914H193.157ZM213.287 207.641V226.783H211.589V207.641H213.287ZM203.124 209.123C205.96 209.145 208.001 211.723 208.001 215.783C208.001 219.844 205.96 222.422 203.124 222.422C200.267 222.422 198.247 219.844 198.247 215.783C198.247 211.723 200.267 209.145 203.124 209.123ZM203.124 210.627C201.212 210.648 199.88 212.668 199.88 215.783C199.88 218.898 201.212 220.918 203.124 220.918C205.037 220.918 206.369 218.898 206.369 215.783C206.369 212.668 205.037 210.648 203.124 210.627ZM229.097 208.328C230.773 208.328 232.191 208.951 233.072 209.982H237.97V207.641H239.646V217.459H237.97V215.268H233.136C232.245 216.342 230.805 216.986 229.097 216.986C226.218 216.986 224.134 215.225 224.134 212.646C224.134 210.09 226.218 208.328 229.097 208.328ZM229.097 209.725C227.142 209.703 225.746 210.928 225.746 212.646C225.746 214.387 227.142 215.611 229.097 215.633C230.988 215.611 232.406 214.387 232.406 212.646C232.406 210.928 230.988 209.703 229.097 209.725ZM239.646 218.426V223.002H228.99V225.129H240.377V226.482H227.314V221.713H237.97V219.779H227.271V218.426H239.646ZM233.845 211.336C233.964 211.744 234.039 212.185 234.039 212.646C234.039 213.098 233.964 213.517 233.845 213.914H237.97V211.336H233.845ZM253.46 208.586V213.248H246.37V215.611C249.99 215.611 252.439 215.515 255.436 215.053L255.587 216.363C252.514 216.857 250.001 216.965 246.241 216.965H244.694V212.002H251.805V209.896H244.63V208.586H253.46ZM259.497 218.555V223.045H248.798V225.172H260.184V226.525H247.122V221.777H257.778V219.887H247.079V218.555H259.497ZM259.497 207.641V217.717H257.821V207.641H259.497ZM282.677 208.07V215.461H284.997V207.641H286.608V226.74H284.997V216.857H282.677V225.795H281.108V208.07H282.677ZM274.749 210.068V211.465H272.171V220.316C272.891 220.295 273.836 220.209 274.878 219.951L275.028 221.391C273.417 221.756 272.171 221.756 271.355 221.756H270.603V210.068H274.749ZM279.819 210.068V211.465H277.112V220.316C278.004 220.306 279.067 220.22 280.228 219.887L280.378 221.326C278.788 221.756 277.478 221.756 276.36 221.756H275.587V210.068H279.819ZM312.066 207.641V218.748H310.411V207.641H312.066ZM312.56 220.102V221.434H306.888C306.985 223.249 309.992 225.032 313.226 225.43L312.603 226.74C309.745 226.332 307.135 224.989 306.007 223.217C304.868 225.032 302.183 226.354 299.304 226.74L298.702 225.451C301.936 225.097 305.051 223.313 305.148 221.434H299.497V220.102H305.169V218.254H306.845V220.102H312.56ZM299.003 208.457V211.422H304.632V208.457H306.308V216.986H297.327V208.457H299.003ZM299.003 215.633H304.632V212.732H299.003V215.633ZM324.912 207.984C329.166 207.984 331.659 209.145 331.659 211.271C331.659 213.441 329.166 214.602 324.912 214.623C320.659 214.602 318.145 213.441 318.145 211.271C318.145 209.145 320.659 207.984 324.912 207.984ZM324.912 209.252C321.733 209.252 319.885 210.025 319.907 211.271C319.885 212.604 321.733 213.334 324.912 213.334C328.071 213.334 329.94 212.604 329.94 211.271C329.94 210.025 328.071 209.252 324.912 209.252ZM333.614 215.912V217.287H316.211V215.912H333.614ZM331.379 218.941V223.217H320.036V225.193H331.959V226.525H318.36V221.971H329.725V220.23H318.317V218.941H331.379ZM359.995 222.895V224.291H342.506V222.895H350.37V218.77H344.569V208.994H346.266V212.453H356.192V208.994H357.846V218.77H352.024V222.895H359.995ZM346.266 217.395H356.192V213.828H346.266V217.395ZM378.17 207.662V221.627H376.494V207.662H378.17ZM378.771 224.914V226.332H365.838V220.209H367.513V224.914H378.771ZM367.857 208.994C370.715 208.994 372.863 210.928 372.863 213.678C372.863 216.471 370.715 218.383 367.857 218.383C365 218.383 362.851 216.471 362.851 213.678C362.851 210.928 365 208.994 367.857 208.994ZM367.857 210.477C365.924 210.477 364.484 211.809 364.506 213.678C364.484 215.59 365.924 216.9 367.857 216.9C369.748 216.9 371.209 215.59 371.209 213.678C371.209 211.809 369.748 210.477 367.857 210.477ZM397.075 207.641V215.203H400.276V216.621H397.075V226.783H395.399V207.641H397.075ZM392.048 209.51V210.906H384.807V220.574C388.266 220.574 390.716 220.413 393.552 219.887L393.766 221.348C390.78 221.885 388.266 221.992 384.636 221.992H383.132V209.51H392.048ZM404.207 225.129C403.455 225.129 402.811 224.506 402.832 223.732C402.811 222.98 403.455 222.357 404.207 222.357C404.959 222.357 405.582 222.98 405.582 223.732C405.582 224.506 404.959 225.129 404.207 225.129Z" fill="black" fill-opacity="0.7"/>
</svg>
