<svg width="295" height="204" viewBox="0 0 295 204" fill="none" xmlns="http://www.w3.org/2000/svg">
<path d="M136.302 0.294395C168.438 -1.3977 200.491 4.23546 227.559 16.3324C254.628 28.4294 275.222 46.3244 286.192 67.2808C297.163 88.2372 297.905 111.102 288.307 132.378C278.708 153.653 259.297 172.17 233.041 185.095C206.786 198.02 175.13 204.643 142.917 203.951C110.703 203.258 79.7043 195.289 54.6602 181.26C29.6161 167.232 11.9054 147.918 4.23655 126.271C-3.43235 104.624 -0.637369 81.8353 12.1941 61.3906L12.4391 61.4641C-0.36911 81.8718 -3.15903 104.619 4.49598 126.227C12.151 147.835 29.8296 167.114 54.8283 181.117C79.827 195.12 110.77 203.075 142.925 203.766C175.08 204.457 206.678 197.847 232.886 184.945C259.095 172.043 278.471 153.56 288.052 132.323C297.633 111.085 296.892 88.2622 285.941 67.3437C274.991 46.4252 254.434 28.5627 227.414 16.4876C200.395 4.4125 168.4 -1.21046 136.322 0.47857L136.302 0.294395Z" fill="#020202"/>
</svg>
