<svg width="620" height="428" viewBox="0 0 620 428" fill="none" xmlns="http://www.w3.org/2000/svg">
<path d="M286.464 0.617653C354.005 -2.93242 421.37 8.88617 478.26 34.2661C535.15 59.6461 578.433 97.1904 601.489 141.158C624.545 185.125 626.106 233.096 605.933 277.733C585.76 322.371 544.963 361.219 489.782 388.337C434.6 415.455 368.071 429.35 300.368 427.897C232.665 426.444 167.514 409.723 114.879 380.292C62.244 350.86 25.0216 310.338 8.90393 264.921C-7.21375 219.505 -1.33956 171.694 25.6282 128.8L26.1432 128.954C-0.775758 171.77 -6.63931 219.495 9.44918 264.829C25.5377 310.163 62.6927 350.612 115.232 379.99C167.772 409.369 232.805 426.059 300.385 427.509C367.966 428.96 434.374 415.09 489.456 388.021C544.538 360.953 585.261 322.175 605.397 277.618C625.534 233.061 623.975 185.177 600.961 141.29C577.946 97.4019 534.742 59.9256 477.956 34.5916C421.169 9.2576 353.925 -2.53958 286.507 1.00406L286.464 0.617653Z" fill="#020202"/>
</svg>
