<svg width="40" height="41" viewBox="0 0 40 41" fill="none" xmlns="http://www.w3.org/2000/svg">
<path d="M0.22439 21.4241L19.386 40.5857C19.6766 40.8762 20.1478 40.8763 20.4384 40.5857L39.6642 21.3599C39.9546 21.0693 39.9546 20.5981 39.6642 20.3075L38.1969 18.8401C37.9063 18.5496 37.4351 18.5497 37.1445 18.8401L23.012 32.9726C22.5351 33.4492 21.7197 33.1103 21.7214 32.4361L21.8091 0.752287C21.8102 0.340167 21.4761 0.00535335 21.064 0.00581993L19.0021 0.00858206C18.5929 0.00944439 18.2607 0.340967 18.2591 0.750216L18.1355 32.4588C18.1327 33.1306 17.3207 33.4653 16.8455 32.9906L2.75174 18.8968C2.46114 18.6062 1.98998 18.6062 1.69937 18.8968L0.22439 20.3717C-0.0662143 20.6623 -0.0662146 21.1335 0.22439 21.4241Z" fill="#020202" stroke="#020202" stroke-width="0.0117188"/>
</svg>
