<svg width="153" height="147" viewBox="0 0 153 147" fill="none" xmlns="http://www.w3.org/2000/svg">
<circle cx="89.1261" cy="71.3012" r="53.4757" fill="black"/>
<rect x="96.2527" y="64.2827" width="56.4045" height="13.0164" rx="1.94104" fill="white" stroke="#020202" stroke-width="0.685075"/>
<rect x="0.342537" y="64.2827" width="56.4045" height="13.0164" rx="1.94104" fill="white" stroke="#020202" stroke-width="0.685075"/>
<rect x="55.1472" y="56.7471" width="56.4045" height="10.7328" rx="1.94104" transform="rotate(-90 55.1472 56.7471)" fill="white" stroke="#020202" stroke-width="0.685075"/>
<rect x="71.1316" y="145.807" width="56.4045" height="10.7328" rx="1.94104" transform="rotate(-90 71.1316 145.807)" fill="white" stroke="#020202" stroke-width="0.685075"/>
<rect x="41.9648" y="52.57" width="56.3732" height="11.3272" rx="1.94104" transform="rotate(-135 41.9648 52.57)" fill="white" stroke="#020202" stroke-width="0.685075"/>
<rect x="125.693" y="127.776" width="56.3732" height="11.3272" rx="1.94104" transform="rotate(-135 125.693 127.776)" fill="white" stroke="#020202" stroke-width="0.685075"/>
<rect x="69.4766" y="44.0452" width="56.3732" height="11.3272" rx="1.94104" transform="rotate(-45 69.4766 44.0452)" fill="white" stroke="#020202" stroke-width="0.685075"/>
<rect x="19.295" y="119.766" width="56.3732" height="11.3272" rx="1.94104" transform="rotate(-45 19.295 119.766)" fill="white" stroke="#020202" stroke-width="0.685075"/>
</svg>
