<svg width="60" height="61" viewBox="0 0 60 61" fill="none" xmlns="http://www.w3.org/2000/svg">
<path d="M32.5156 0.00585938H59.252C59.6627 0.00610666 59.9961 0.339175 59.9961 0.75V27.4854C59.9961 27.8962 59.6627 28.2292 59.252 28.2295H57.2217C56.8109 28.2293 56.4775 27.8962 56.4775 27.4854V7.84863C56.4775 7.17533 55.6637 6.83849 55.1875 7.31445L6.62109 55.8545C6.33046 56.1447 5.85981 56.1439 5.56934 55.8535L4.14746 54.4326C3.85707 54.1421 3.85725 53.6715 4.14746 53.3809L52.6875 4.81348C53.1632 4.33733 52.8263 3.52378 52.1533 3.52344H32.5156C32.1048 3.52322 31.7715 3.19014 31.7715 2.7793V0.75C31.7715 0.339157 32.1048 0.00607679 32.5156 0.00585938Z" fill="#FF5202" stroke="#FF5202" stroke-width="0.0117188"/>
<path d="M20.2725 19.7634V60.3381" stroke="#FF5202" stroke-width="3.75"/>
<path d="M0 40.0542L40.5747 40.0542" stroke="#FF5202" stroke-width="3.75"/>
<path d="M5.92871 25.7056L34.6194 54.3962" stroke="#FF5202" stroke-width="3.75"/>
</svg>
