<svg width="168" height="165" viewBox="0 0 168 165" fill="none" xmlns="http://www.w3.org/2000/svg">
<rect x="86.6286" y="59.6542" width="50.764" height="11.7148" rx="1.74694" fill="white" stroke="#020202" stroke-width="0.616567"/>
<path d="M165.46 43.5455C166.731 43.7364 167.495 45.0591 167.025 46.2551L157.765 69.8095C157.152 71.3684 155.009 71.5283 154.171 70.0777L138.403 42.7657C137.565 41.3151 138.775 39.5392 140.432 39.7878L165.46 43.5455Z" fill="#020202"/>
<rect x="16.4679" y="123.335" width="147.969" height="11.3272" rx="1.94104" transform="rotate(-30 16.4679 123.335)" fill="#020202" stroke="#020202" stroke-width="0.685075"/>
<rect x="105.164" y="89.6605" width="56.4045" height="13.0164" rx="1.94104" transform="rotate(15 105.164 89.6605)" fill="#020202" stroke="#020202" stroke-width="0.685075"/>
<rect x="117.168" y="158.61" width="56.3732" height="11.3272" rx="1.94104" transform="rotate(-120 117.168 158.61)" fill="#020202" stroke="#020202" stroke-width="0.685075"/>
<rect x="59.8004" y="161.905" width="56.4045" height="10.7328" rx="1.94104" transform="rotate(-75 59.8004 161.905)" fill="#020202" stroke="#020202" stroke-width="0.685075"/>
<rect x="64.3766" y="51.0723" width="50.764" height="9.65955" rx="1.74694" transform="rotate(-90 64.3766 51.0723)" fill="white" stroke="#020202" stroke-width="0.616567"/>
<rect x="76.3715" y="50.4407" width="50.7359" height="10.1945" rx="1.74694" transform="rotate(-45 76.3715 50.4407)" fill="white" stroke="#020202" stroke-width="0.616567"/>
<rect x="53.4102" y="58.1126" width="50.7359" height="10.1945" rx="1.74694" transform="rotate(-135 53.4102 58.1126)" fill="white" stroke="#020202" stroke-width="0.616567"/>
<rect x="0.308284" y="59.6542" width="50.764" height="11.7148" rx="1.74694" fill="white" stroke="#020202" stroke-width="0.616567"/>
</svg>
