<svg width="37" height="37" viewBox="0 0 37 37" fill="none" xmlns="http://www.w3.org/2000/svg">
<path fill-rule="evenodd" clip-rule="evenodd" d="M26.2356 11.434C26.3932 11.2765 26.4817 11.0628 26.4817 10.84C26.4817 10.6172 26.3932 10.4036 26.2356 10.246C26.0781 10.0885 25.8644 10 25.6416 10C25.4188 10 25.2052 10.0885 25.0476 10.246L18.2496 17.044L11.4516 10.246C11.2941 10.0885 11.0804 10 10.8576 10C10.6348 10 10.4212 10.0885 10.2636 10.246C10.1061 10.4036 10.0176 10.6172 10.0176 10.84C10.0176 11.0628 10.1061 11.2765 10.2636 11.434L17.0616 18.232L10.2636 25.03C10.1061 25.1876 10.0176 25.4013 10.0176 25.624C10.0176 25.8468 10.1061 26.0605 10.2636 26.218C10.4212 26.3756 10.6348 26.4641 10.8576 26.4641C11.0804 26.4641 11.2941 26.3756 11.4516 26.218L18.2496 19.42L25.0476 26.218C25.2052 26.3756 25.4188 26.4641 25.6416 26.4641C25.8644 26.4641 26.0781 26.3756 26.2356 26.218C26.3932 26.0605 26.4817 25.8468 26.4817 25.624C26.4817 25.4013 26.3932 25.1876 26.2356 25.03L19.4376 18.232L26.2356 11.434Z" fill="#020202"/>
</svg>
