<svg width="20" height="15" viewBox="0 0 20 15" fill="none" xmlns="http://www.w3.org/2000/svg">
<path d="M0 0.9C0 0.661305 0.094821 0.432387 0.263604 0.263604C0.432386 0.094821 0.661305 0 0.9 0H18.9C19.1387 0 19.3676 0.094821 19.5364 0.263604C19.7052 0.432387 19.8 0.661305 19.8 0.9C19.8 1.13869 19.7052 1.36761 19.5364 1.5364C19.3676 1.70518 19.1387 1.8 18.9 1.8H0.9C0.661305 1.8 0.432386 1.70518 0.263604 1.5364C0.094821 1.36761 0 1.13869 0 0.9ZM0 7.5C0 7.26131 0.094821 7.03239 0.263604 6.8636C0.432386 6.69482 0.661305 6.6 0.9 6.6H18.9C19.1387 6.6 19.3676 6.69482 19.5364 6.8636C19.7052 7.03239 19.8 7.26131 19.8 7.5C19.8 7.7387 19.7052 7.96761 19.5364 8.1364C19.3676 8.30518 19.1387 8.4 18.9 8.4H0.9C0.661305 8.4 0.432386 8.30518 0.263604 8.1364C0.094821 7.96761 0 7.7387 0 7.5ZM0 14.1C0 13.8613 0.094821 13.6324 0.263604 13.4636C0.432386 13.2948 0.661305 13.2 0.9 13.2H18.9C19.1387 13.2 19.3676 13.2948 19.5364 13.4636C19.7052 13.6324 19.8 13.8613 19.8 14.1C19.8 14.3387 19.7052 14.5676 19.5364 14.7364C19.3676 14.9052 19.1387 15 18.9 15H0.9C0.661305 15 0.432386 14.9052 0.263604 14.7364C0.094821 14.5676 0 14.3387 0 14.1Z" fill="#020202"/>
</svg>
