<svg width="19" height="19" viewBox="0 0 19 19" fill="none" xmlns="http://www.w3.org/2000/svg">
<path d="M10.6217 0.00488281H17.9996C18.3079 0.00488281 18.5582 0.254267 18.5582 0.5625V7.94141C18.5581 8.23126 18.3227 8.46582 18.0328 8.46582C17.7431 8.4657 17.5085 8.23118 17.5084 7.94141V3.16895C17.5083 2.66404 16.8978 2.41161 16.5406 2.76855L2.7594 16.541C2.55545 16.7447 2.22495 16.7448 2.02112 16.541C1.81746 16.3372 1.81752 16.0066 2.02112 15.8027L15.7946 2.02246C16.1515 1.66529 15.8982 1.05469 15.3932 1.05469H10.6217C10.3317 1.05469 10.0963 0.819256 10.0963 0.529297C10.0964 0.239391 10.3318 0.00488281 10.6217 0.00488281Z" fill="white" stroke="white" stroke-width="0.00878906"/>
<path d="M6.64404 5.92902V18.1014" stroke="white" stroke-width="1.125" stroke-linecap="round"/>
<path d="M0.5625 12.0162L12.7348 12.0162" stroke="white" stroke-width="1.125" stroke-linecap="round"/>
<path d="M2.34094 7.71161L10.9481 16.3187" stroke="white" stroke-width="1.125" stroke-linecap="round"/>
</svg>
