<svg width="18" height="18" viewBox="0 0 18 18" fill="none" xmlns="http://www.w3.org/2000/svg">
<path d="M10 0.00390625H17C17.274 0.00390625 17.4961 0.226015 17.4961 0.5V7.5C17.4961 7.77399 17.274 7.99609 17 7.99609C16.726 7.99609 16.5039 7.77399 16.5039 7.5V2.91797C16.5039 2.4691 15.961 2.24421 15.6436 2.56152L2.5752 15.6221C2.38249 15.8147 2.07058 15.8147 1.87793 15.6221C1.68528 15.4294 1.68533 15.1175 1.87793 14.9248L14.9385 1.85645C15.2558 1.53896 15.0309 0.996094 14.582 0.996094H10C9.72602 0.996094 9.50391 0.773985 9.50391 0.5C9.50391 0.226015 9.72602 0.00390625 10 0.00390625Z" fill="#FF5202" stroke="#FF5202" stroke-width="0.0078125"/>
<path d="M6.24414 5.59961V17.0957" stroke="#FF5202" stroke-linecap="round"/>
<path d="M0.5 11.3486L11.9961 11.3486" stroke="#FF5202" stroke-linecap="round"/>
<path d="M2.17969 7.2832L10.3087 15.4122" stroke="#FF5202" stroke-linecap="round"/>
</svg>
